<?xml version="1.0" encoding="utf-8"?><!--Generator: Adobe Illustrator 26.1.0, SVG Export Plug-In . SVG Version: 6.00 Build 0)--><svg version="1.1" id="Livello_1" xmlns="http://www.w3.org/2000/svg" xmlns:xlink="http://www.w3.org/1999/xlink" x="0" y="0" width="425.2" height="425.2" viewBox="0 0 425.2 425.2" enable-background="new 0 0 425.2 425.2" xml:space="preserve"><g id="_x5F_Celle_di_Carico"><path fill="#000000" d="m271.9 173-.1-.1c-.1-.2-.2-.5-.4-.7-.1-.2-.3-.4-.4-.7-.2-.3-.4-.5-.6-.8h-.1l-1.6-1v-.6l-.4-1.2.3 1.1-.5-1.6-.2-.1v.2l-.1.1v-.3h.1v-1c.4-.6.9-1.1 1.4-1.6v-.1h-.1v-.1l.1.1v-.1s.1 0 .1-.1c.3-.3.4-.7.5-1.1 0 .5-.2.9-.5 1.2 0 0-.1 0-.1.1l1.8 1s.1 0 .2.1c0 0 .1 0 .2-.1l-.1.1h.4v.1-.1c.2-.1.2-.4.2-.7v-.1c0-2.8 0-5.7-.1-8.5-.1.1-.1.2-.2.4-.1.4-.3.8-.6 1.1-.3.4-.7.7-1.2.9.7-.5 1.3-1.2 1.8-2v-.7s-.1-.1-.1-.2c-.1-.3-.3-.5-.5-.8l-.6-.6-.1-.1c-.2-.2-.4-.4-.6-.5-1.6-1-4.3-1.2-6.3-.5-.7.3-1.2.6-1.5 1-.1.1-.2.2-.3.2.1 0 .1-.1.2-.1-.8.9-.7 1.9.3 2.8 1.5 1.3 4.5 1.7 6.7.8.2-.2.5-.3.7-.4.9-.5 1.4-1.3 1.4-2 0-.3-.1-.7-.3-1 .4.5.4.9.4 1.1 0 1.6-2.8 2.9-5 2.9-2.4 0-5.1-1.6-5-3 0-.4.3-.8.6-1.1-.2.1-.4.2-.6.4-.5.6-.6 1.2-.5 1.8v1.8c-.1 0-.1-.1-.1-.1v3.2h-.1v1.9c.1-.2.2-.3.3-.3l-.3.3c-.1.1-.1.3-.1.5v.1c0-.3.1-.5.2-.7-.1.1-.2.4-.2.6 0 .2 0 .4.1.6.1.1.1.1.1.2s.1.2.1.3c.2.3.4.5.7.7v.2c.3.2.5.2.7.1l-.1-.1c.1 0 .2 0 .3-.1 0 .1-.1.1-.2.1h-.1c.1.1.2.1.3.1l.1-.1h-.1c.2-.1.4-.4.4-.7 0 .2 0 .4-.1.5 0 .1-.1.1-.2.2l2.1 1.2-.1.1-1 .5v1.2c-1 .6-2 1.1-3 1.7.2-.1.5-.2.8-.3-.1 0-.2.1-.2.2h-.1c-.6.4-1 .8-1.3 1.1v3.5c0 .3-.1.7-.1 1v.8c.4 1.3 1.2 2.6 2.1 3.7l4.5 2.6s.1 0 .1.1l-2.4-1.4-.5-.3v.6l.5 1.6.3.1h.4v.1l-.2-.1h-.1v1.2h.1c-.1.2-.1.4-.2.5l-1.2 1c-.7-.3-1.3-.6-2-.9h-.1c-.2.3-.2.6-.2 1v.1h-.1l-.1.1c0 .1-.1.1-.1.2v3.2l.2-.1h.2-.1l-.4.2v-.1c-.1.1-.3.3-.4.5v.4c0 .3.1.7.2 1.1 0 0 0 .1.1.1v1.3c.1 0 .1.1.1.1v-.2s0 .1.1.1v.2c0 .1.1.2.2.3h-.1c-.1 0-.1.1-.1.2-.1-.2-.1-.4-.1-.6v1.2c0 .2 0 .5.1.7 0 0 .1.1.1.2.2.2.4.5.7.8l.9-.5.9-.6.2-.1h.1l2.1-1.1v-.1l.1-.1 2.1-1.2v.2l.2.1h.1l1.3.7c0 .8.1 1.6.1 2.5v1.2h-.1l.1.3c.5-.2.9-.6 1.2-.9l.2-.2c.4-.3.7-.7.8-1.1v-.1c0-.2.1-.5.1-.7v-8.1c0 .4 0 .7-.2 1v6.5l-.1-6.5h-.3v-.3h.2s.1 0 .1.1c.1-.3.1-.5.1-.8v-.3l-.1-.1c-.5-.3-1-.7-1.6-1-.1-.1-.3-.2-.4-.3l-1.8-1.2 1-.5.1-.1v-1.1l2.9-1.7c.3-.2.7-.5.9-.9v-5.3c.1-.7-.1-1.2-.3-1.6zm-.8-14.1.1-.1h.2s0 .1-.1.1c0 0-.1.1-.2 0 .1.1.1.1 0 0 0 .1 0 0 0 0zm-1.5 1.2c-.1 0-.2.1-.3.2v-.1c.1 0 .2 0 .3-.1zm-1.8.8v-.1s0-.1.1-.1l.1-.1.1-.1h.1c-.2.1-.1.1 0 .1 0 .1-.1.1 0 0l-.1.1-.1.1c-.1.1-.1.2-.2.1 0 .1 0 .1 0 0zm-6.9-1.2-.1-.1.1-.2v.2c0 .1.1.1 0 .1zm1 .3v-.1c.1 0 .1 0 0 .1 0-.1 0-.1 0 0 0 0 0 .1 0 0zm-.5-.3v-.1h.1c-.1 0-.1 0-.1.1.1 0 .1 0 0 0l.3.2c.1 0 .1 0 .1.1l-.4-.3zm.5 2.5-.1.1c0 .1-.1.1-.1.1v.2c-.1 0-.1-.1-.1-.1v-.1c0-.1.1-.1.1-.2v-.1l.2-.1v.2zm.4-1.3-.2.2s-.1 0-.2-.1v-.1l.1.1h.1l.2-.1zm.1-.8c-.1 0-.1-.1-.1-.1l-.2.1.1-.1h-.1l.2-.2c.1 0 .1.1.1.2h-.1l.1.1zm.4 2.9c0-.1 0-.1.1-.1 0 .1-.1.1-.1.1zm0-2.3s-.1.1 0 0c-.1.1-.2.1-.2.1s.1 0 .2-.1l.1-.1-.1.1zm0-.2v-.1.1zm.9.2c-.1 0-.1 0-.2-.1h-.1s-.1 0-.1.1v-.1l.1-.1.1-.1c.1 0 .2.1.2.1v.2zm1.2 17.6c0 .1-.1.1 0 0zm-.3-13.9v.1-.1zm.1 14c-.1 0-.1.1 0 0-.1 0-.1 0 0 0zm-3.1-7.9c-.1 0 0 0 0 0zm1.3 5.4s-.1 0 0 0c-.1 0-.1-.1 0 0v-.1.1zm.4-.6c-.1 0-.1 0-.2.1l-.1.1.1-.1.2-.1h.2-.2zm.6 3.2v-.2h.1l-.1.2zm.2-3.3c.2.2.3.3.4.5l-.5-.3.1-.2zm.8 4.2c-.1 0-.1 0 0 0-.2 0-.3-.2-.3-.3v-.1l.2-.2h.1c.1.1.2.2.2.3 0 .3-.1.4-.2.3zm.6-18.3s-.1 0 0 0c-.1-.1-.1-.1 0 0l-.1-.1.1.1c-.1-.2 0-.2 0 0 0 0 .1-.1.1 0v.1h-.1v-.1zm.2 6.7c-.1.1-.1.1 0 0h-.2.2l-.1-.1.1.1h.2-.2zm5.4 27v.1-.1zm-3.3-5.1s.1.1.1.2-.1.1-.1.1h-.1l.1-.3h-.1.1zm-1.6-16.7s.1 0 0 0h.1-.1c0 .1 0 0 0 0zm-.5 17.1h-.1c-.1-.1 0-.2.1-.3v.3zm.6-3.6h-.1.1zm.5-3c0 .1-.1.1-.2.2v-.5h.4c-.1.1-.2.3-.2.3zm.2-.3c-.2.1-.3.1-.5.1h-.3c.3 0 .6-.1.8-.1.1 0 0 0 0 0zm.7-15.6s0 .1 0 0c0 0 .1 0 0 0 .1 0 .1.1 0 0zm.6 10.5v.4-.4c0 .1 0 .1 0 0v-.3h.2c-.1.1-.1.2-.2.3zm.1-1.3v.8h-.1v-.8h.1c-.1-.1-.1-.3-.2-.5.1.2.1.3.2.5.1-.1.1-.1 0 0zM212.6 29.2v-.8c-.1-.3-.3-.6-.5-.9-.3-.2-.6-.5-.9-.7h-.2c-.1-.1-.2-.2-.3-.2-.9-.7-2.4-1.1-4-1.1s-3 .5-3.8 1.2c-.3.2-1.2.9-1.5 1.8v.6c0 .4 0 .8-.1 1.2 0 .4.1.8.3 1.1 0 .1 0 .1.1.1 0 0-.1.1-.2.1-.3-.1-.6.8-.8 2-.1.5-.2 1-.2 1.3s0 .6.2.8c0 .1.1.1.1.1.4 0 .7.1 1.1.1v1.7l2.3-2 .3-.2v-.1l2.1-1.4-.1-.3 1.7-1 .2.3c.4-.3.7-.5 1.1-.8.3-.1.6-.3.8-.4.1 0 .2-.1.3-.1.2-.1.3-.2.5-.3.5-.1 1-.2 1.5-.4.1-.1.1-.3.1-.5 0-.5-.1-.9-.1-1.2zm-9.5 3.7c0-.1 0-.1 0 0l.1-.1-.1.1zm-156 116.9v.1l.8-.2c.6.2 1.1.4 1.6.7 0 .1.1.2.1.3v2.7h.2l1-.1c-.2.4-.4.7-.8 1v.1c0 .1.1.2.1.2v.1c0-.1.1-.1.1-.1.4-.3.7-.7.8-1.1v5.5c.1.2.1.5.1.7 0 .1 0 .3-.1.3v.1h.1s0 .1-.1.1v.8c0 .2 0 .5-.1.7 0 .1-.1.1-.1.2 0 0 0 .1-.1.1l-.1.1c-.4.6-1.2 1.2-2.2 1.5.7-.2 1.4-.6 1.8-1l-.2.4c-.5.6-1.3 1-2.3 1.3-2.4.7-5.2.2-6.5-1.1-.6-.4-1.1-.9-1.3-1.4v-.1c-.1-.2-.1-.5-.1-.7v-1.2c0 .7.4 1.4 1.2 2h.4v-.2l-.1-.1v-.1h-.1c-.9-.7-1.3-1.4-1.1-2.3l1-.2h.2v-.3h-.1l-.9.2v-.1h-.1c-.1 0-.2-.1-.2-.1v-6.5s.1.1.2.1v-.3s0-.1.1-.1c0-.1.1-.2.1-.2.1-.2.3-.4.5-.6l.1-.1 3-.5v-.4l-.4-.1-.2-.1h-.1l-.3-1c-.4-.1-.8-.3-1.1-.5-.1 0-.2-.1-.2-.2-.6-.4-1.1-.8-1.4-1.3l-1.5-3.2v-.9l.3.7-.3-.8v-4.2l-.1-.2c.7-1.1 1.8-2.2 3-2.9h.1l1.1-.2c0-.6-.1-1.2-.1-1.8-.3-.2-.7-.4-1.1-.6-.1 0-.1-.1-.2-.1v-3c-.1 0-.3.1-.4.1-.4 0-.7.1-1.1.1v-7.2c-.1-.6 0-1.2.5-1.8l.4-.5c-.2.3-.4.7-.4 1.1s.2.8.4 1.2c-.2-.3-.3-.7-.3-1.1s.1-.8.4-1.1l.1-.2c.8-1 2.5-1.6 4.5-1.6-.4 0-.8 0-1.2.1-1.7.2-3 1-3.4 2 .5-.9 1.8-1.6 3.4-1.9 1.4-.3 2.8-.1 3.9.3-.1 0-.2-.1-.2-.1.9.3 1.6.7 2 1.2l.1.2.2.2.2.3c.3.3.5.7.6 1.1.1.7.1 1.3.2 2 0 .1 0 .2-.1.3v6.9c-.1.2-.2.3-.3.5l-.3.6s-.2 0-.5.1l-2.6.4c.2.5.3 1.1.5 1.6v.2c1.2.2 2.2.9 2.8 1.9.5 1 .9 2.1 1.4 3.1v-.1c-.1-.1-.2-.2-.2-.3 0 0 0 .1.1.1l.2.2c0 .2 0 .3.1.5 0 .2.1.4.1.5h-.1c.1 1.5.2 3 .2 4.5-.7 1.2-1.7 2.2-2.9 2.9l-1.3.2v1.2h-.1l-.3.2-.1.1-.9.2z"/></g><path id="_x5F_Motore_Elettrico" fill="#000000" d="M197.6 93.4c0-3.8.1-7.6.1-11.4 0 2.3-1 4.6-2.7 6.5 1.7-1.9 2.6-4.1 2.6-6.4v-.2c0-.3 0-.5-.1-.8 0-.5-.1-1.1-.3-1.7-.1-.6-.4-1.2-.6-1.7-.2-.5-.5-1.1-.9-1.6-.4-.6-.8-1.1-1.2-1.6l-.4-.4-.1-.1c-.6-.7-1.4-1.3-2.2-2-.2-.1-.3-.2-.5-.2-.4-.3-.9-.6-1.4-.9l-2.9-1.7c-7.8-4.6-20.5-4.6-28.4 0-.6.3-1.1.7-1.6 1 .2-.2.5-.4.8-.5l-2.1 1.2s-.1.1-.2.1l-1.5.9-.2.2c0 .1-.1.1-.2.2l-.1.1c-.2.1-.3.3-.5.4-.1.1-.3.2-.4.3l-.3.3c0-.1.1-.2.1-.2-.2.2-.4.3-.5.5-.5.5-1 1.1-1.4 1.6-.4.6-.8 1.1-1.1 1.7-.3.5-.6 1.1-.8 1.7s-.3 1.2-.4 1.8c-.1.4-.1.7-.1 1.2v.3c0 .4 0 .8.1 1.2v13.1c0 1.3.3 2.5.9 3.7 0 .3-.1 1-.1 1v8.4c-2.2 1.2-4.5 2.5-6.7 3.7-.2.7-.2.8-.3.8v4.5c-.2 0-1.7.3-2.3 1.5-.7 1.4.1 3.5 2.2 4.6v3.2c.2.3.3.6.5.9 1.8-.8 3.5-1.5 5.3-2.3.4.2.9.5 1.3.7 3.7 2.1 7.3 4.1 11 6.2l2.1 1.2c.1.1.3.2.4.3v.1l1.2.7.1.1v2.2l1.1.6h.1v5l-1.3.7c-.1 0-.2.3-.2.4 0 .1-.1.3-.2.4l-.8.5-.3.2v.1l-2.6 1.5v.8h.2l.8-.4c.1 0 .2.1.3.1l-.1.1-.8.4h-.2c-.1 0-.2-.1-.2-.1v-.1c-.1 0-.2 0-.2-.1v-.9l-2.4 1.4h-.1l-1-.6v.1c0 .1 0 .1.1.2l-.1.1-.5.3-.1.2c.1 0 .3.1.4.2l1.6.9c1 .6 1.8 1.6 2.4 2.8v.1c1.4-.1 2.6.1 3.7.7l1.6.9c1.2.7 2.1 1.8 2.6 3.3.2.1.3.1.5.1 1.7.2 3.5.3 5.2.3 2.7 0 5.3-.2 7.9-.8l15.1-8.7c.8-1.2 1.2-2.4 1.4-3.7 0-1.6-.3-3.2-.8-4.8v-39.1s-.1 0-.1.1c-.1.1-.2.1-.3 0v.1c-.3.4-.6.9-1 1.3l.1.1s.1.1 0 .1v.1c-.1.1-.2.1-.4 0l-.1.1v-.2l.1.1c.1-.1.1-.2.2-.3.3-.5.6-.9.9-1.4.1-.1.1-.2.2-.3.1-.2.2-.3.2-.4.1 0 .1-.1.1-.1.6-1.2.9-2.4.9-3.7v-1.7h-.1v-1.4zm-49.1-12.5v-.2c.1.1.1.1 0 .2l.1-.1c0 .1-.1.2-.1.1z"/><path id="_x5F_Filtro" fill="#000000" d="M266.2 47.9v2.7c0 1.4-.2 2.7-.7 4v49.2c0 1.9-.5 3.8-1.5 5.7l-22.3 12.9c-11.9 2.1-24.7.2-33.5-4.7-1.5-.7-5-2.5-7.5-6.5-1.9-2.9-2.4-5.8-2.6-7.4V55.1c-.1-.2-.1-.3-.2-.5-.5-1.3-.7-2.7-.7-4v-2.9h.1c0 .8.1 1.5.3 2.2-.1-.7-.2-1.5-.2-2.2h-.1v-.4c0-10.9 15.4-19.9 34.4-19.9 19 .1 34.4 9 34.4 19.9v.5l.1.1z"/><path id="_x5F_Pompetta_additivo" fill="#000000" d="m362.4 152.2-.1.1c-1.8 1.1-3.6 2.1-5.5 3.2-.3 1.5-1 2.8-2.1 3.6-.1.1-.4.3-1 .8h-.2l-.3.3c-.1.1-.2.1-.3.2l-.2.1c-.7.4-1.4.6-2.3.6v.3c.8.5 1.6 1 2.5 1.5v-.1l.2.2c0 .1.1.3 0 .5 0 .1-.1.2-.2.3-2.3 1.3-4.7 2.7-7 4-1.4.8-2.8 1.6-4.2 2.5h-.8c-.1 0-.1-.1-.2-.2s0-.3 0-.3h-.1c0 .2-.1.3-.1.5 0-.2-.1-.4 0-.5l-4-2.3c-.2-.2-.5-.3-.7-.5l1.9-1.1 1.7.9-1.7-1-2 1.2h.1-.1l.8.5c1.3 1 2.7 1.9 4 2.8-1.8-1-3.5-2.1-5.2-3.1 0 0-.1 0-.1.1-.2.1-.3.2-.4.3l-.1.1c-1.4.8-3.2.6-5.1-.5-.1-.1-.2-.2-.4-.3-.1-.1-.2-.1-.3-.2-.1 0-.2-.1-.3-.1l-.1-.1c-1.6-.9-3.2-2.6-4.4-4.7-.9-1.6-1.5-3.3-1.7-4.8v-.1c0-.2 0-.5-.1-.7 0-.5-.1-.9-.1-1.3 0-2.4.7-4.1 2.1-4.9.3-.2.6-.3.9-.3 2.1-1.2 4.3-2.5 6.4-3.8v-1.1l5.6-3.2.1-.1c0-.2.1-.3.1-.5v-.1c0-.1.1-.2.1-.3v-.1c0-.1 0-.1.1-.2 0-.1.1-.1.1-.2l.2-.3s0-.1.1-.1l.1-.2c.3-.5.6-.9.9-1.2.2-.2.4-.4.7-.5.1 0 .4-.2.4-.2l.3-.2s.1 0 .1-.1h.1v-.2l.7-.4c1.6-.7 3.3-.7 5.1 0h.1c.4-.2.8-.5 1.2-.7v-3.4c-.1-.1-.1-.3-.1-.5 0-.9 1.3-1.7 3-1.7 1.6 0 2.9.8 2.9 1.7v.1c0 .2.1.3.1.5l.7.4.2.1c1.6.2 3.3 1.2 4.9 2.8l.3.2c.2.1.3.3.5.4.3.2.5.5.5.9v.1-.2l1.5 2.4c3 5.2 3 10.6.2 12.4z"/><path id="_x5F_Vaschetta_Additivo" fill="#000000" d="M315.5 127.3c0-.5-.2-.9-.6-1.1h-.1l-4-2.3c0 1.6 0 3.1-.1 4.6v-4.6h.1v-4l-.1.1c0-.1 0-.1-.1-.2l-1.7-1v-7.2c.2-.7.3-1.4.3-2.1 0-1.6-.5-3.2-1.6-4.7l-.1-.1V103c-.5-.5-1-1-1.6-1.4l-.6.2c.6.5 1.1.9 1.6 1.4v.6c-.1-.2-.2-.3-.3-.4l-.2.1.2-.1c-.3-.5-.8-1-1.3-1.4-1.4-1.3-2.9-1.9-3.9-2.3-.1-.1-.3-.1-.4-.2l-2.4-.9-.2.2c-4.6-1.5-10-2-15.3-1.3 0-.3-.1-.5-.1-.8-.1.1-.2.1-.4.1s-.4-.1-.4-.2v1c-.7.1-1.3.2-2 .4-.7.1-1.3.3-2 .4v-.6l.1-.1c0-.1.1-.1.1-.2V97c0-.1-.1-.2-.2-.3v.2l-.2-.1v-3.2c-.1-.1-.2-.1-.3-.2 0-.1-.1-.1-.2-.1s-.3.1-.3.2v3.2h-.1l-.2.3-.1.1v1.8h.1l-.1.1v-.1c-.2 0-.4.1-.5.2l-.3-.1-3.6-2.1c-.7.4-1.5.8-2.2 1.2v4c-2.8 2.2-4.3 4.9-4.3 7.5v6.1h-.1c-.5.6-1 1.2-1.4 1.8.1.2.1.3.2.5l-.2.2h-.1c-.4.3-.9.5-1.3.8-.1 0-.1 0-.2.1h-.1l-1.1.7c-.1 0-.2 0-.3.1h-.1c-.5.4-.9.7-1.4 1.1 0 0-.1 0-.1.1-.4.4-.4 1.4.1 2.2.6.9 1.5 1.4 2 1.1.1 0 .1-.1.2-.2l1.4-.6.3-.3 1.1-.5h.1l.3-.3s0-.1.1-.1l.6-.3h.1v8.2c0 1.6.4 3.1 1.4 4.5.1.1.1.2.2.3 1 1.5 2.6 2.8 4.5 3.9l.1-.1v.3c3.2 1.8 7 2.9 11.1 3.4 1 .1 1.9.2 2.9.2h2.4c.3 0 .7 0 1.1-.1.3 0 .7 0 1.1-.1h.1c.4 0 .8-.1 1.2-.1.4-.1.8-.1 1.1-.2.2 0 .4-.1.6-.1.9-.2 1.7-.3 2.6-.6.3-.1.7-.2 1-.3h.2c.2-.1.4-.1.6-.2.1 0 .1 0 .2-.1h.1c.3-.1.5-.2.8-.3.1 0 .1 0 .2-.1.1 0 .2-.1.2-.1.2-.1.5-.2.7-.3h.1c.8-.3 1.5-.7 2.2-1.1.4-.3.9-.5 1.3-.9.1 0 .1-.1.2-.1h.1l-.2.2h.1l.6.3s.1.1.2.1.2 0 .2-.1c0 0 .1 0 .1-.1l3-1.7 7-4.1c.1-.1.2-.2.2-.3l.1-.1c0-1.6-.1-3.3-.1-5zm-50.3-9.6c-.1 0 0 0 0 0 .1-.1 0-.1 0 0zm37.3 9v.4c-.1-.2-.1-.3-.1-.5v-.3l.2-.1c0 .1-.1.3-.1.5zm4.8-1c-.1.1-.3.1-.5.3.2-.2.4-.3.5-.3zm-.1 8.6h-.2c-.2 0-.4.2-.6.5-.1.2-.1.4-.1.5 0-.2.1-.4.1-.6.2-.3.4-.4.6-.5.1 0 .1 0 .2.1.1 0 .1.1.1.2 0-.1 0-.2-.1-.2zm2.1-4.8-.2.1c-.2.1-.5.1-.7.2l.9-.3z"/><path id="_x5F_Compressore" fill="#000000" d="M412.8 237.8c-.1-.9-.2-1.7-.3-2.6-.2-.9-.4-1.7-.6-2.6-.2-.9-.5-1.7-.8-2.6-.3-.9-.6-1.7-1-2.6-.4-.9-.8-1.7-1.2-2.5-.4-.8-.9-1.6-1.4-2.4s-1.1-1.6-1.6-2.3-1-1.3-1.5-1.9v-.4l-3.2 1.9c-3 4-6.8 6.5-10 6.5h-.7l-1.8.7-3.8 2.2c-.1 0-.2 0-.4.1l4.1-2.4 1.8-.7c-.7 0-1.4-.2-2-.6l-.2-.1h-.1l-.1-.1c-.2-.1-.4-.3-.5-.4l-.2.1c-.2-.1-.3-.2-.4-.3h-.2c-.1-.1-.2-.1-.3-.1 0 0-.1 0-.1-.1h-.1c-.1 0-.2-.1-.2-.2-.1-.1-.2-.1-.3-.2l.6.4c.1.1.2.1.3.1.1 0 .1.1.2.1h.1c.1.2.3.2.4.3-2.9-2.9-2.6-9.5 1-15.6 3-5.1 7.3-8.4 11-8.8.4 0 .7-.1 1.1 0h-1.1c-3.7.4-7.9 3.7-10.9 8.8-3.9 6.7-3.9 13.9 0 16.2l.1.1c.6.3 1.3.5 2 .6h.7c3.2 0 7-2.4 9.9-6.5.5-.7 1-1.5 1.5-2.3.1-.1.1-.2.1-.2v.1c-.5.8-1 1.6-1.5 2.3l-.1.1 3.2-1.9-1.5-.8v-.1s0-.1.1-.1c0-.1.1-.1.1-.2 3.5-6.6 3.4-13.5-.4-15.7-.1-.1-.3-.1-.4-.2l.3.2c-.6-.3-1.2-.5-1.9-.6.5 0 1.1.2 1.5.4l-.5-.3-.6-.3-.7-.4-.8-.5c-1.3-.8-3-.9-4.8-.3-.1 0-.2.1-.2.1v-.1c0-.1 0-.2-.1-.4l.3-.3c0 .1.1.2.1.3 0 0 0 .1-.1.1.3 0 .5 0 .6-.1s.1-.1.1-.2v-.7l.3-.3c0 .1.1.3.1.4 0 .1.1.1.1.2.3 0 .5 0 .6-.1s.1-.2.1-.3l-.2.2c.1-.2.2-.5 0-.9l.1-.1-.1-.2.1.2.2-.2-.1-.5.4.2.2.8.1.2c.1.4.7.6 1.3.4.6-.1 1-.6.8-1.1l-.4-1.1s0-.1.1-.1l-.2-.5-.1-.3.8-.8-.3-.6c.2-.1.3-.3.5-.4 0-.1 0-.2-.1-.2v-.1c-.2-.1-.2-.3-.4-.4l.3-.3v-.3c-.2-.1-.3-.3-.4-.4l.2-.2c0-.1-.1-.2-.1-.3l.1-.1c-.2-.1-.3-.3-.4-.4l-.1.1-.1.1-.1-.1-.1-.1h-.1l.4-.3c-.2-.1-.3-.3-.5-.4h-.1l-.2.2.3-.3c-.8-.8-1.7-1.5-2.6-2.1.7.5 1.3 1 2 1.6l-.3.2-.2-.2-.1-.1.1-.1c-1-1-2.3-1.8-3.6-2.6.8.5 1.6 1.1 2.3 1.7-.1 0-.2-.1-.2-.1-.3-.2-.5-.3-.8-.5h-.1c-.6-.4-1.2-.9-1.8-1.2-.2-.1-.4-.3-.6-.4-.2-.1-.5-.3-.7-.4-.4-.2-.8-.4-1.3-.6-.3-.1-.5-.2-.8-.3h-.1s-.1-.1-.2-.1-.1-.1-.2-.1c-.1-.1-.3-.2-.4-.3l-1.2 1.2c-.1 0-.3 0-.4.1 0 .1-.1.1-.1.1 0 .1-.1.2-.2.3 0 .1-.1.1-.1.2v.1s-.1 0-.1-.1c-1-.6-1.9-1.2-2.8-1.7-1.1-.6-2.1-1.1-3.2-1.5h-.1v.2c.5.2 1.1.5 1.6.8-.5-.2-1-.5-1.5-.7-.5-.3-.9-.4-1.4-.6l-.5-.1c2.6 1 5.2 2.4 7.8 4.3v.1c-2.6-1.9-5.2-3.3-7.8-4.2v.2c-.3-.1-.5-.2-.8-.3-.1.1-.2.1-.3.1v.5c-.2-.1-.5-.2-.7-.3-.1 0-.2.1-.3.1v.5c-.2-.1-.5-.2-.7-.3-.1.1-.1.1-.2.1 0 0-.1 0-.1.1v.6c2.1.8 4.3 2.1 6.5 3.6h-.1c-2.1-1.5-4.3-2.7-6.4-3.5-.3-.1-.5-.2-.7-.2-.1.1-.1.1-.2.1 0 0-.1 0-.1.1v.7c1.8.6 3.6 1.6 5.4 2.8h-.2c-1.7-1.1-3.5-2-5.2-2.7-.2-.1-.5-.2-.7-.3-.1 0-.2.1-.2.2v.9c-.3-.1-.5-.2-.7-.2l-.2.2-.1.1v1c1.3.5 2.6 1.1 3.9 1.9 0 .1-.1.1-.1.2-1.3-.8-2.7-1.4-4-1.9-.1-.1-.3-.1-.5-.2l-.1.3v1.9l.1.1v-.7h.1v1.5c-.1-.2-.2-.3-.2-.4v-.1.2c0 .2.1.4.2.6.2.2.4.4.7.6l5.2 3V191h.1v1.8c.4.2.9.4 1.4.4-.6 0-1.1-.2-1.5-.4l-5.2-3c-.3-.2-.6-.4-.7-.6v.5c0 .2.1.4.2.6.1.2.3.3.6.5l5.2 3c.3.2.6.3 1 .4-.4-.1-.8-.2-1.1-.4l-5.2-3c-.3-.1-.5-.3-.6-.5v.3-.1.3c0 .2.1.4.2.6-.1.4.1.9.7 1.2l5.2 3c.4.2 1 .4 1.6.4l-.1.1c-.6 0-1.1-.2-1.5-.4l-5.2-3v.3c-.3-.1-.4-.3-.6-.4v.6c0 .2 0 .3.1.4l-3.7 2.2-.6 1.7c.2-.1.3 0 .5 0l.1-.1h-.1.2l.1-.1h.6c.1 0 .2.1.3.1h.1l-.2.1h.1-.1l-.2.1c-.1 0-.1-.1-.2-.1h-.4c-.1 0-.2 0-.3.1 0 0 .1 0 .1.1h-.1s.1 0 .1.1l-.2.1h-.1c-.2-.2-.5-.2-.7-.2l.1.1c-.1 0-.1-.1-.2-.1h-.1.1-.2c-.2 0-.3 0-.5.1h-.3c.2 0 .3.1.5.2l-.2.1c-.4-.2-.7-.3-1.1-.2 0 0 .1 0 .1.1h-.2.1c-.1 0-.1-.1-.2-.1h-.7l-.2.1h.2-.5l-.4.1c.3 0 .6.1.8.2 0 0 .1 0 .1.1h-.2c-.3-.2-.5-.3-.8-.2l.1.1c1.8 1.3 4.1 2.6 6.6 3.8l.1.1 1.1-.3-1.1.1 1.7 1v.1l-1.7-1-.1-.1c-2.5-1.2-4.7-2.5-6.6-3.8l-1.6.3-.3.3c.2.1.5.3.7.5 2.2 1.7 4.9 3.2 7.9 4.5v.1c-3-1.4-5.7-2.9-7.9-4.5l-1.4.3-.1.1c0 .1-.1.2-.1.3l.9.6-1.2.3-.1-.1c-.1.1-.1.3-.2.4.3.3.6.5.9.7 2.3 1.7 5.1 3.3 8.3 4.7l.1-.1h-.1s.1 0 .1-.1c0 0 0-.1.1-.2 0 .1-.1.1-.1.2v.1l.9-.2 1.3-.3v.1l-1.2.3.9.5h-.1l-.8-.4-1.1.2c-3.2-1.5-6-3.1-8.3-4.7l-1 .3c-.1 0-.1-.1-.2-.1 0 .2-.1.3-.1.3.3.3.6.5.9.7 2.3 1.7 5 3.3 8.2 4.7 0-.1 0-.1.1-.2v-.1h.1v.4l1.1-.3 1.3-.3v.1h.1l-.2.9-.2-.1-.9-.5-1.2.3c-3.2-1.5-6-3.1-8.3-4.7l-1 .3s-.1 0-.1-.1c-.1.1-.1.3-.1.3.3.3.6.5.9.7l-1 .2v.4l.9.6c2.3 1.7 5 3.3 8.2 4.7h.1l1-.2 1.1.6h-.1l-1-.5-1.1.2c-3.2-1.5-6-3-8.3-4.7l-.7.3h-.1v.3l.9.6-.8.2c2.4 1.9 5.4 3.6 8.9 5.2l1-.2-.8.2h-.1v.1s.1 0 .1.1v.1h-.1v-.2c-3.5-1.6-6.5-3.4-8.9-5.1l.2.4c.5.4.9.7 1.4 1l-.4.1c.3.4.6.7 1 1 .3.3.6.5 1 .8l.1-.1c.1.1.2.1.3.2l-1.4.9-.1-.1-6.8-3.9 6.7 3.9-.1.1-6.8-3.9-2.8 1.6-3.2 1.8-.1-.1 2.4-1.4h-.1l-.2.1-.3.2-.2.1-.4.2-5.2-3-1.9-1.1-.1-.1v.1l-.5-.3h.1l.4.2v-.3h.1v-.1c.1-.1.2-.1.3-.1l.4.2v-.2h.1l-1.1-.7c0-.1-.1-.1-.1-.1-.1-.1-.3-.1-.4-.2-.2-.1-.4-.2-.5-.2-.3-.1-.8-.2-1.2-.2-.4 0-.9 0-1.3.1-.5.1-.9.2-1.4.4s-.9.4-1.4.7c-.5.2-.9.5-1.4.9s-.9.8-1.3 1.2c-.4.5-.8.9-1.2 1.4-.3.5-.7 1-1 1.5s-.6 1-.9 1.6-.5 1.1-.7 1.7c-.2.5-.3 1.1-.5 1.7s-.3 1.2-.3 1.7c-.1.3-.1.6-.1 1v.9l.3 1.5v.2c.1 0 .2.1.3.1-.2.1-.4.4-.5.6v.2l8.2 4.8v-.2c.1-.2.2-.5.5-.6.3.2.5.5.5.8-.3.2-.7.2-1 0l-8.2-4.7c-.1-.1-.2-.2-.2-.3l-.8 8.7c0 .1.1.2.2.3l.4.2.6.4c-.1 0-.1.1-.1.2l.1.1v1.1l4.8 2.8v-1.5l.2.1v5c-.6.1-1.1.2-1.7.3-.4.1-.9.2-1.3.4h-.2l-4.4 2.6-5.1 3c-.2.1-.3.2-.5.3-.4.3-.8.5-1.2.8-.5.4-1 .8-1.5 1.3s-.9 1-1.3 1.5-.8 1.1-1.1 1.7c-.4.6-.7 1.2-.9 1.9l-.6 2.1c-.2.7-.3 1.4-.4 2.2 0 .8-.1 1.6-.1 2.4s0 1.6.1 2.5.2 1.8.4 2.6.4 1.7.6 2.6.5 1.7.8 2.6c.4.9.7 1.7 1.1 2.6.3.8.7 1.7 1.2 2.5.4.8.9 1.6 1.4 2.4s1 1.6 1.6 2.3l1.8 2.1c.6.7 1.2 1.4 1.9 2 .6.6 1.3 1.2 2.1 1.9.7.6 1.5 1.1 2.2 1.6.8.5 1.5.9 2.3 1.3.7.4 1.5.7 2.3 1l2.1.6 2.1.3h2c.7 0 1.3-.1 2-.2.6-.2 1.3-.4 2-.6.3-.1.7-.3 1-.4 2.8-1.2 5.3-2.8 7.5-4.4l8.2-4.8 45-25.9.1-.1.9-.6.9-.9s.1 0 .1-.1c.4-.4.8-.7 1.1-1.1.4-.5.8-1 1.2-1.6.4-.6.7-1.2 1-1.8s.6-1.2.8-1.9c.3-.7.5-1.4.6-2.1s.2-1.3.3-2c.1-.5.1-.9.1-1.4-.4-1-.4-1.8-.5-2.7zm-25.3-18.5c-.1-1-.1-2 .1-3.1-.1 1-.2 2.1-.1 3.1zm.2.6c.1.1.1.2.1.3-.1-.1-.1-.2-.1-.3zm.3-.6-.3.5c0-.1-.1-.3-.1-.4l.4-.1zm14.9-8.2c.1 0 .1 0 0 0h.2v.3h-.2v-.3zm-2.2-11c.1 0 .1.1.2.1 0 0-.1 0-.2-.1 0 .1 0 .1 0 0zm-2.8 11h1.9c.1-.2.2-.5.2-.7-.1.2-.1.5-.2.7l-1.8.1v.6-.2c0-.2-.1-.3-.1-.4v-.1zm-4.6 9.9-.1-.5v-.1l.1.6zm.3-15.3v-.1.1zm1 3.1-.1-.1.1.1v-.6l.1.2-.1.4zm1.3-4.7v-.1c.2-.1.3-.2.5-.2 0 0 .1 0 .1-.1v.1s-.1 0-.1.1c-.2 0-.3.1-.5.2zm.5 5.9c-.1 0-.1-.1-.1-.1l.1.1c.1 0 .1.1.2.1 0 0-.1 0-.2-.1zm.7.3c-.1-.1-.2-.1-.2-.1h.1c-.1-.1-.2-.1-.2-.1h.2v.1s.1 0 .1.1c0-.1 0-.1 0 0zm2.4 3.5h-.7c0 .1-.1.2-.1.2h-.1l.1.1c-.2.2-.4.5-.5.8-.1.2-.2.3-.3.4-.1.2-.2.3-.3.5l.9 4.1v.2h.1l-.1.1v-.1l-1.2-5.5c0-.1 0-.1.1-.1l.3-.6s0-.1.1-.1h-.1c.2-.5.4-.9.4-1.4 0 .4-.2.9-.4 1.3l.6-.1 1.2.2c.8-.2 1.5-.4 2.1-.8-.6.4-1.3.7-2.1.8zm2.5-9.1s0 .1 0 0c-.1.1-.1 0 0 0zm-.1-.5c-.1-.1 0-.1 0 0zm-.8-.7c.2.1.4.2.6.4h.1v.1h-.3l-.7.8-.1.1h-.1l-.2.2v-.1l-.1.1c-.2-.7-.4-1.3-.8-1.9 0-.1-.1-.1-.1-.2h.1c.6.1 1.1.2 1.6.5zm-.6-3.4c-.2 0-.3 0-.4-.1.1 0 .3.1.4.1zm-2.7 0c.1 0 .2-.1.3-.1-.5.1-1 .2-1.5.4l1.2-.3zm-1.6.5c-.2.1-.5.2-.7.3.2-.1.4-.2.7-.3zm2.4-7s0 .1 0 0c.1.1.1.1.1.2v.3c0 .1-.1.2-.1.2 0-.1.1-.2.1-.2v-.5h-.1zm-.9-3.9-.2.2.2-.2zm-.4 1.1.1.4c-.1.1-.1.2-.2.2.1-.2.1-.4.1-.6zm-.7-1.8.1.1c0 .1.1.1.1.2v.1c0-.1-.1-.1-.1-.2-.1-.1-.1-.1-.1-.2zm0 5.8.1.1v.1h.1l.2.2c.2.3.2.7.3 1-.1 0-.1.1-.2 0s-.1-.2-.2-.3-.1-.3-.2-.4l-.1-.4-.1-.2-.1-.3.2.2zm-.9-1-.1.1-.1-.2.2.1zm-16.6-1.7-.1-.8h.1v.8zm-11.1 5.7c-.1 0-.2-.1-.2-.1s.2 0 .2.1zm2.2 3.4c.2.1.3.2.4.3-.1-.1-.3-.2-.4-.3zm1.7-3.8c-.2 0-.2 0-.3-.1h-.2.5v.1zm-1.2 8h-.1.1c-.1 0 0 0 0 0zm.3-1.4c.1-.1.1 0 .1 0h-.1zm-1.5 5c0 .1-.1.2-.1.3h-.1c0-.1 0-.2.1-.3 0-.1 0-.1.1 0v-.1.1c0-.1 0 0 0 0zm-36.6 9.8-.2-.1c0-.1 0-.3.1-.4l.5.3-.4.2zm.7-.5-.3.2-.5-.3.6-.3.6.3c-.2 0-.3 0-.4.1zm.7-2.7-.5.2-.3.2.3-.2.5-.2-.6-.3c.1-.2.1-.3.2-.5l.9-.5-.8.5c-.1.2-.1.3-.2.5l.5.3zm1.6-4.2h-.1c.1-.1.2-.3.3-.4h.1c-.1.1-.2.3-.3.4zm7.3 16.1-.1-.6.1.6zm-.9-21.5h.2-.1c0 .1-.1.1-.1 0zm-.6.3s.1 0 0 0l.5.2v.1l-.5-.3zm-2.4 1.5c.1-.1.1-.1.2-.1l.3.2v-.5l.1-.1c.1-.1.2-.1.3-.2l.4.2v-.4l.1-.1v.6l-.1-.1v.2l-.5-.3c-.1.1-.1.1-.2.1v.7l-.1-.1v.2l-.5-.3zm-.3.1h.2c-.1.1-.2.1-.2 0zm-.4.4.4.2v.2l-.5-.3.1-.1zm-1.4-2.8c.4-.2.8-.5 1.2-.6-.3.2-.7.4-1.2.6zm1.2 30.2c-.1.1-.1.1-.2.1.1 0 .1-.1.2-.1zm1.9 6.2c-.1.1-.2.2-.3.2-.6.4-1.2.4-1.7.1.6.4 1.6.1 2.4-.7-.1.2-.2.3-.4.4zm1-5.7-.8-.5.8.5c.1 0 .1 0 0 0zm.5.2-.3-.2c.1 0 .2 0 .3.2 0 0 .2.1.3.2-.1-.1-.2-.1-.3-.2zm.5-12.1v-.3c.1-.1.2-.2.2-.3v.4l.1-.1v-.2c-.1-.2-.2-.4-.4-.5h-.2.1s.1 0 .1-.1c.1 0 .2 0 .3.1.2.1.3.3.4.6v.8l.1.8v.4l.1.7-.3-.5-.2-.2v-.4l-.1-.8v-.4h-.2zm.4 8.9.7-.5v.1l-.7.4zm2.2-15.2v-.2h.1c0 .1-.1.1-.1.2zm4.3-7.2.2-.1h.1l-.3.1-.4.2.4-.2zm-3 2h-.2.2zm-.3.6.1.3.1.1h-.1l-.1-.1v-.3zm0 .5s0 .1 0 0l.1.2-.1-.2zm.1 1.6.3.2-.3-.2zm-.7 2.5 1.1.6-1.1-.6zm3.2 68.9c.2-.1.4-.2.6-.4h.1l-.7.4zm2-53.1s0-.1 0 0v-.3c.1.1.1.2 0 .3 0-.1.1 0 0 0 .1 0 .1 0 0 0zm.3.7c0-.1-.1-.1-.1-.2 0 .1.1.1.1.2zm-.4-2.4.4-.3h.1l-.5.3zm.6-1.2h-.2l.1-.1.1.1zm0-3c0-.1 0-.2.1-.2 0 .1-.1.1-.1.2zm.7-2.2c.1-.1.1-.3.2-.5-.1.2-.1.3-.2.4l.2-.1-.2.2zm.6 9.4-.3-.2-.2-.1.2-.1-.1-.1.2-.1c.1.1.1.2.2.3l-.3.1.3.2zm1.5-18.5c.1.3.2.7.2 1-.1.1-.3.1-.4 0 0-.3.1-.6.2-1zm.2 1.7v.1h-.3.1c.1-.1.2-.1.2-.1zm-.9 17.6-.1-.1h-.1.1c.1.1.2.1.1.1zm.1-11.3-.2.1v-.1h.2c0-.1 0-.1 0 0zm2.3 28.3s-.1 0-.1.1h-.1c-.2 0-.4-.1-.6-.3 0-.1-.1-.1-.1-.2l-1.2.7v-.1l1.2-.7 1.1-.7v.7c-.1.2-.1.3-.2.5 0-.1 0 0 0 0zm.5-.2c0 .2 0 .3-.1.4l-.3.2c.1-.1.2-.3.2-.6h.2l-.1-1h-.1l.1-.1.1-.1v1.2zm4-17.6c0 .1.1.1.1.2-.1 0-.1-.1-.1-.2zm.1-4.8c.1-.1 0 0 0 0zm.1 5.3s.1 0 .1.1c-.1 0-.1-.1-.1-.1zm.1.1s0 .1.1.1c-.1 0-.1 0-.1-.1zm9.4-23 .2.1h-.3l-.2-.1h.3zm-1.1.4c.1 0 .1 0 0 0h-.1.1zm-2.3 5.1h.1l-.3.1.2-.1zm-4.6 9c.3-.4.6-.8 1-1.2-.3.4-.6.8-1 1.2zm1.3-14.3s0 .1 0 0v.3h-.1l-.1.1v-.2h-.1c.1 0 .1-.1.1-.1v-.4l.1-.1c.1 0 .1-.1.1-.1v.5zm-.1-.6-.1.1c0-.1-.1-.2-.2-.3h.1-.1c-.1 0-.1 0-.2-.1v-.1h-.1v-.1l.1.1h.4c.1 0 .2.1.1.4.1 0 .1 0 0 0zm.7 13 .3-.3-.3.3zm3.8-1.3c-.4-.1-.7-.2-1.1-.1h-.1c.2-.1.5-.1.7-.1h.5v.2zm2.8-3.1-1.1.8h.1v.5l-.2.2c0-.1-.1-.2 0-.2 0-.2 0-.3.2-.5l-.1-.1.1-.1 1.1-.9v.3h-.1zm-1.9-1.3.1.1-1 .8v-.2l-.1.1-.3.2c0-.1-.1-.2-.1-.3h.1c-.1-.1-.1-.2-.1-.3h-.1v-.1c-.2-.2-.3-.4-.5-.6-.1-.1-.1-.2-.2-.2l-.4-.4.5-.2h.1l.5.3c0 .1 0 .1.1.2l1.4.6 2-1.6-2 1.6zm2.1 14.7v-.2c0-.1.1 0 0 .2zm.2-11.5c0-.1.1-.1 0 0 .1-.1.1-.1 0 0zm.7-11.4c0-.1 0-.1 0 0 0-.1 0-.1 0 0zm.4.8h-.1c.4-.3.6-.7.7-1.2h-.1c-.1.2-.2.4-.3.5.1-.2.1-.3.2-.5h.1v-.1h.2c-.1.6-.4 1.1-.7 1.3zm.5-.1c.1-.1.3-.1.4-.2h.1c-.2.1-.3.2-.5.2zm14.7-15.1c-.1.1-.2.2-.4.3v-.2l.1-.1c.2-.1.3-.2.4-.4l.3.3v.1c.1.1.1.2.2.3l-.6-.3zm-.3-.7c.1-.1.2-.2.3-.2-.1.1-.1.1-.3.2zm2.1-2.8c0-.1.1-.2.2-.3 0 .1-.1.2-.2.3zm.2-.4v-.1.1zm1.4 3.6-.1-.4.1.4zm2.7 5.7c0 .1-.1.1-.2.2 0-.1.1-.1.2-.2l-1.4-.7s.1 0 .1-.1l1.3.8zm-1.4-1.8c.2-.1.4-.3.7-.4-.2.1-.4.3-.7.4zm1.7-.9c-.3.1-.5.3-.8.4 0 0 .1 0 .1-.1.3-.1.4-.2.7-.3zm1-7 .1.5v.1l-.1-.1v-.5zm-.2-2.4c-.1 0-.1 0-.2.1.1-.1.2-.1.2-.1zm-.2 4.7-.2.3v-.1l.2-.2-.1-.1v-.1.1l.1.1zm-.6-4.5h.2c.1-.1.2-.1.3-.1-.1 0-.1.1-.2.1s-.2.1-.4.2c.1 0 .1-.1.1-.2zm-.1 3.1.3 1v.1l-.3-1.1-.3.3v-.1l.3-.2zm-1-4.8h.3-.3l.1.1h-.1s.1-.1 0-.1zm0 5.8.1.3.2.5.3.3-.2.2-.1-.3-.1-.1-.2-.6v-.3l-.1-.2.1.2zm-.7 1.7.4.2-.1.1-.3-.3h-.1.1zm-.5 1.4-.3.3-.1-.2-.2-.6v-.1l.5.3.1.3zm-.4-8 .1.1-.1-.1zm-.5-1.1.3.2.1.4-.6-.4.2-.2zm-.5 1.6h.1-.1c.1.1 0 .1 0 0zm.1 15.5c-.1.1-.1.2-.2.2l-.1.1.3-.3zm-1-14.8.7-.4-.7.4zm-.2.1-.3.2-.2.1h-.1l.3-.2.3-.1zm-.6-4.3s.1.1 0 0v1.5c0-.1 0-.2-.1-.3v-1l.1-.2c-.1-.1-.3-.2-.4-.3.1.1.3.2.4.3zm.1 2.9v.1-.1h-.2c.1 0 .1-.1.2 0zm-.2-.6s0-.1 0 0c-.2.2-.3.4-.5.5v-.1c.2-.2.4-.3.5-.4zm-.7-2c.1 0 .1 0 0 0h-.2.2zm0 3.5v.3c.2-.1.3-.2.4-.3l.1-.1c0-.1.1-.1.1-.1v.3h.1v-.1l.1.1v.1l.2-.2h.1l-.3.3h-.2v.1c0 .2-.1.4-.2.6v.1l-.1.1h-.1c0-.1.1-.1.1-.1.1-.2.2-.4.2-.6v-.2c0 .3-.3.7-.7.9v.2l-.4.2-.2-.1-.6-.3-.3-.2 1.7-1zm-1.9-2.9c-.1 0-.2.1-.3.1.1-.1.2-.1.3-.1zm-2 1.2v.1-.1zm-2.2 2 .1 1.2h-.1v-1.2zm.8 3v-.2l.1-.1v.3h-.1c-.3.2-.6.3-1 .4.4-.1.7-.2 1-.4zm-.8 4.6c.1 0 .3-.1.4-.2l.1-.1v.1c-.1.1-.3.1-.5.2zm-.8-2.5c.1 0 .3.1.4.2-.2-.1-.3-.1-.4-.2-.1.1-.1.1-.2.1l.2-.1zm.4 2.3s-.1 0 0 0h-.2.2zm-1.4 1.1c.1-.1.1-.1 0 0 .3-.3.4-.5.6-.7h.3l-.1.1-.5.5-.1.1v.1l-.1.1h-.2c.1-.1.1-.1.1-.2zm-.9 1.4.2.2v.1c-.1.1-.1.3-.2.4 0-.1 0-.1-.1-.2s0-.3.1-.5zm-2-3.7.2.1h.1l.1.1-.1.1-.3-.3zm-1.6 7-.2.1.2-.1zm-.7 3 .3.1-.3-.1zm-.7-11h.1v.4c-.1-.1-.3-.2-.4-.3 0 0 0-.1.1-.1l.2.2v-.2zm-.6-1.8v-.2.2zm.1-.6c0 .3.2.4.4.5v.1c-.2-.1-.4-.2-.5-.4 0-.1 0-.1.1-.2zm.1 3.7h-.1.1zm-.1 9.1.2.1.2.1h.3c-.1.1-.1.1-.2.1h-.1l-.1-.2-.3-.1zm1.8 4.9s-.1 0 0 0c-.2.1-.3.1-.4.1h-.2c.2 0 .3-.1.4-.2-.2.1-.3.2-.5.2h-.1c-.2.2-.4.3-.6.4h-.4l.2-.1h.1c.3-.2.5-.4.7-.8v-.1c0 .1.1.1.2.1v.1h.2c.1.1.2.1.3.1l-.1.1c.1.1.1.1.2.1 0 0 0-.1.1-.1s.1 0 .2.1h.2-.5zm1.3-.7c0 .1-.1.1-.1.1v-.1l.1-.1v.1zm.3-10.1-.1.1.1-.1s0-.1 0 0zm.5 6.7c0-.1 0-.1-.1-.2l.1-.1c.1.1.1.2.1.2 0 .1 0 .1-.1.1zm.1-8.8h-.2l-.3-.2v-.2l.2.1.1.1.2.2zm.8 7.3v-.1l.1.1h-.1zm.7 21.7c-.2.1-.3.2-.3.3v-.1.1c.1.1.1.2.2.3-.1-.1-.2-.1-.2-.2v-.1c-.1-.2 0-.4.2-.5h.1v.2h.2-.2zm.6-27.3c.3.2.7.2 1 .2-.3 0-.7-.1-1-.2zm.2 1.5c0 .1.1.2.1.2-.1 0-.1-.1-.1-.2zm2.4 25.9-1.6.6 1.6-.6zm.9-18.7-.1.1.1-.1v-.1.1zm.9-10.4-.1-.1-1.8 1 1.7-1h.1l.1.1zm.3-5.9-.5-.3h.1l.4.3zm.3-4.2c.1-.1.2-.1.2-.1l.1-.1v.1c-.1.1-.2.1-.3.1zm.5 5.1-.1.1h-.1v-.2s0-.1.1-.1l.1.2c0-.1 0 0 0 0zm.3-.2c.4.1.7.3.9.7-.1-.1-.1-.2-.2-.2-.3-.3-.6-.4-.9-.4l.2-.1zm12.5 35.8v.3l-.5.3c.1-.1.2-.3.2-.6l.1-.1v-.9l.2-.1v1.1zm9.6 24.1c-.2.1-.3.2-.5.3.3-.2.6-.5.9-.7-.1.2-.3.3-.4.4z"/><path id="_x5F_Scarico_Solido" fill="#000000" d="M171.4 61.4v-4.1c0-3.1-2.1-6.2-6.2-8.6-8.2-4.7-21.5-4.6-29.6.1-4.1 2.3-6.1 5.4-6.1 8.5 0 .4 0 .8.1 1.2v8c0 .7.1 1.5.3 2.2-.1 0-.1 0-.1-.1-.2-.7-.3-1.4-.3-2v-6.1l-7 4.1-.5.3v-.2l-1.8 1h.1-.1c-6.8-.9-14.1.2-19.4 3.3-4.1 2.4-6.1 5.4-6.1 8.5s2.1 6.2 6.2 8.6c1.9 1.1 4 1.9 6.3 2.5-2.3-.6-4.5-1.4-6.4-2.5-4.1-2.4-6.2-5.5-6.2-8.6v3.1l.1-.1v.2l-.1.1v-.2l-9.3 5.3c.1.1.1.1.2.1 3.4.5 6.7 1.5 9.4 3-.2-.7-.3-1.5-.3-2.2v-6l.1 6c0 .7.1 1.5.3 2.2.1 0 .2.1.3.1 3.1 1.8 5 4.1 5.8 6.4 8.2 4.5 21.1 4.4 29.1-.2v-9.1s.1 0 .1-.1v9.1l.1.1c3.7-2.2 5.8-4.9 6.1-7.9-.2 3-2.4 5.8-6.1 8l-.1-.1v.1c-8 4.6-20.9 4.7-29.1.2.2.7.3 1.5.3 2.2v9.2l-.1-9.3c0 3.1-2.1 6.2-6.1 8.5h-.1l.1.1s-.1 0-.1.1v-.1H95v-.1c-.8.5-1.3.8-2.1 1l1.2-.7c.3-.1.6-.3.9-.4v.1l.2.1c4-2.4 5.9-5.3 5.9-8.4 0-.7-.1-1.5-.3-2.2-.7-2.4-2.6-4.6-5.8-6.4-.1-.1-.2-.2-.3-.2-2.7-1.5-6-2.5-9.4-3H85c-6.8-.9-14.3.2-19.6 3.3-4.1 2.4-6.1 5.6-6 8.8 0 .6.1 1.2.3 1.8v7.1c0 3.3 2.3 6.3 6.1 8.5 2.3 1.3 5.1 2.3 8.2 2.9-3.1-.6-5.9-1.6-8.3-2.9-3.8-2.2-6.1-5.2-6.1-8.5v-6l-9.4 5.4c-.1-.1-.2-.1-.3-.1 0 .1-.1.1-.1.2h.1-.1v-.3h-.1c-.2.1-.2.2-.2.3l.2.2v.4c-.1-.1-.2-.1-.2-.2v2.1l-.1-.1v2.7c-.2 0-.4 0-.5.1l-1.4.8c-.3.2-.5.6-.5.9v2.3l.3.2-.3-.1c0 .1 0 .2.1.2l.3.2c.1.1.2.1.4 0l1.4-.8h.1l.1.1.2.1.1.1v3.6l.8 1.2.1.2c.3.4.4.8.4 1.2v1.3c0 .2-.1.3-.1.5-.1.2-.1.4-.1.6v6.6c-.1.4-.4.8-.8 1.1l-.1.1-.3.1v2.8c.4.3.7.7 1 1.1l.1-.1 6.8 3.9c.1-.2.1-.3.1-.4.2-.8.4-1.5.7-2.3l.9-2.1c.3-.6.7-1.3 1.1-1.9.3-.5.7-1 1.1-1.5l-1.5-.9v-.1l1.6.9-.1.1h.1l.1-.1c.3-.4.6-.7.9-1l-6.8-3.9c-.2-.1-.5.1-.7.4.2-.3.4-.5.5-.5 0 0-.1-.1-.2-.1 0-.1 0-.1-.1-.1h-.5c-.1 0-.1.1-.2.1l-.1.1c0-.1 0-.1.1-.2l.2-.2c.1-.1.1-.1.2-.1h.5c0 .1.1.1.1.1.1 0 .1.1.2.1l6.8 3.9.6-.6c.6-.5 1.2-.9 1.8-1.3.6-.4 1.2-.8 1.9-1.1s1.4-.6 2.1-.8c.8-.2 1.5-.4 2.3-.5s1.5-.2 2.2-.2 1.4 0 2.2.1c.8.1 1.5.2 2.3.4.9.2 1.7.5 2.6.8.1.1.1.1.2.1.6-.5 1.1-1 1.7-1.4.1-.1.2-.2.3-.2l.2.1c.4-.3.9-.7 1.4-1-.1 0-.1-.1-.1-.1h.4c-.1.1-.2.1-.3.1.1 0 .2.1.3.1h.2c0-.1 0-.1.1-.1s.1 0 .1-.1v-.5c0-.3-.1-.7-.2-1s-.2-.5-.4-.8c-1.1-.5-2-1.3-2.3-2.2-.3-.2-.5-.2-.8-.2-.2 0-.4 0-.6.1s-.4.2-.4.5l-.3.6c-.1.3-.1.6-.1.9-.1 0-.2-.1-.2-.2 0-.4 0-.6.1-.9 0-.2.2-.4.3-.6.2-.2.4-.3.6-.4s.4-.1.6-.1c.3 0 .5.1.8.2-.1-.3-.2-.7-.2-1h.1l-6.1-3.7-.1-.1v-4.8c0-.1.1-.2.2-.3l.3-.2.4-.2c.1 0 .2-.2.2-.3v-2.6c-.5.8-.7 1.7-.7 2.5v.2h-.1v-.1c-3.9-.5-7.4-1.6-10.2-3.2-1.7-.9-3-2-4-3.2l-.3-.3c0-.1-.1-.1-.1-.2-2-2.8-2.2-5.9-.4-8.7-1.7 2.8-1.5 5.8.5 8.5.3-.4.7-.8 1-1.1-.3.4-.6.8-.9 1.1 0 .1.1.1.1.2l-.1.1.3.3.2-.1c1 1 2.2 2 3.8 2.9 2.8 1.6 6.4 2.7 10.2 3.2 0-.7.3-1.6.7-2.5v-.5c0-.1.1-.2.2-.3l.8-.4c.1 0 .2-.2.2-.3v-.3c0-.1.1-.2.2-.3l4.2-2.4h.1l.6.4.4-.2h.1l4.9 2.8 3.1 1.8h-.1l.4.3.1-.1.8.5 2.2 1.2v.1l4.5 2.6c.1 0 .1 0 .1.1v2c.3.5.4 1.1.4 1.8v.1c-.2.8-.4 1.7-.4 2.7L148 90.3v-8.4c0-.4 0-.8.1-1.2 0-.6.2-1.2.4-1.8 0-.1.1-.2.1-.3.2-.5.4-.9.7-1.4.3-.6.7-1.2 1.1-1.7.4-.6.9-1.1 1.4-1.6s1.1-.9 1.7-1.4c0-.1.1-.1.2-.2l.2-.2 1.5-.9.2-.1 2.9-1.7c2-1.2 4.3-2 6.8-2.6v-1l-.3-.2v-.1l.2.2v.1h.1v1.1c1.9-.5 3.9-.7 6-.8 3.2-.1 6.5.2 9.4 1l.1-.2-9.4-5.5zM85.5 86l4.6-2.7-4.6 2.7zM97 81.6l.5-.5c-.2.2-.3.4-.5.5zm-.4.7c0-.1-.1-.1-.1-.2V82v.1c.1.1.1.1.1.2 0-.1 0 0 0 0zm.4.4-.3-.3v-.1l.2.2c.1.1.1.2.1.2zm2.7-3.5c.1-.2.3-.3.6-.4l-.3.3c-.1 0-.2.1-.3.1zm1.5-.9c-.1.1-.2.1-.2.1s.1-.1.2-.1c.2-.2.3-.2.4-.3 0 .1-.2.2-.4.3zm1.4-.8c-.1.1-.3.1-.5.2.1 0 .1-.1.2-.1.2-.1.4-.2.6-.2-.1 0-.2.1-.3.1zm1.8-.8c.1 0 .2-.1.3-.1.1 0 .1 0 .2-.1-.1.1-.3.2-.5.2zm.6-.2c.1-.1.3-.1.5-.2-.1.1-.3.1-.5.2zm1.3-.4h-.2.2c.1 0 0 0 0 0zm.9-.3c-.1.1-.2.1-.3.1.1 0 .2-.1.3-.1zm-.1.2c0-.1.1-.1.2-.1-.1 0-.2.1-.2.1zm3.3-.7c.7-.1 1.4-.2 2-.2-.7.1-1.3.1-2 .2zm5.1 14h-.2.2l.2-.1-.2.1zm5.7-13.8c.2 0 .4.1.6.1-.2-.1-.4-.1-.6-.1zm4.7 1.1c-.1 0-.1 0 0 0-.1 0-.1 0 0 0-.1 0-.2 0-.2-.1.1 0 .2.1.4.1h-.2zm-27.6 24.6c.4.3.7.7 1 1.1-.3-.4-.7-.8-1-1.1zm1 1c0-.1 0 0 0 0zm-.1-.1c-.3-.3-.5-.6-.9-1l-.1-.1c.4.3.7.7 1 1.1zm-.6 1.1s.1 0 0 0c-.3.4-.7.8-1.1 1.1l1.1-1.1zm-4.1-4.8c-.2-.1-.3-.2-.5-.3.2.1.4.2.5.3zm-.6-.3c-.3-.1-.5-.3-.8-.4.3.1.6.3.8.4zm-46.6 15.4c0-.2.1-.4.3-.5-.1.1-.2.3-.3.5zm.9 1.9H48c-.1 0-.1-.1-.1-.2h.1c0-.1 0-.1.1-.2l.1-.1c0-.1.1-.1.2-.1 0 0 .1.1.1.2v.2c-.1.2-.3.3-.3.2zm.3-1.9c-.1.2-.2.3-.3.2H48c-.1 0-.1-.1-.1-.2 0 0 .1 0 .1-.1 0 0 0-.1.1-.1 0 0 0-.1.1-.1l.1-.1h.2c.1 0 .1.2 0 .4zm.9-1.4c0-.1 0-.1 0 0zM59.8 131c-.1.2-.4.3-.6.3.2 0 .4-.1.6-.3zm-5.6-13v-.2c.1.1 0 .2 0 .2zm.4-2.7-.3.1.3-.1zM64 99.9c-.2.1-.3.2-.5.4 0 0-.1.1-.2.1l-.2.2.1-.1c.1-.1.2-.1.2-.2l.1-.1c.1 0 .1-.1.2-.1.2-.2.4-.3.6-.4 0 .1-.1.1-.3.2zm3.8-2.2-.4.1c.2-.1.4-.2.6-.2-.1 0-.1.1-.2.1zm2.4-.9c.4-.1.9-.3 1.2-.3-.4 0-.9.1-1.2.3zm1.7-.5c-.1 0-.2 0-.3.1h-.1c.1-.1.2-.2.4-.1.1-.1.1-.1 0 0 .1-.1.1-.1 0 0zm1.2-.4c-.2.1-.4.1-.7.2h-.1c.3-.1.5-.2.8-.2zm.4.3c-.3.1-.5.1-.8.2-.1 0-.2.1-.4.1l.1-.1h.3c.3-.1.6-.1.8-.2zm0-.3h-.2c0-.1.1-.1.2 0 0-.1 0 0 0 0 .3-.1.6-.2.8-.2-.3.1-.6.1-.8.2zm1.4-.3h.2-.2zm15.6 1.1c.2 0 .4.1.6.2-.2-.1-.4-.1-.6-.2zm44.8-47.3c-2 1.3-3.5 2.8-4.4 4.4.9-1.6 2.3-3.1 4.4-4.4zM134.2 82c.1.1 0 .1 0 0zm-.1.3s-.1 0 0 0c-.1-.1-.1-.1 0 0-.7-.9-1.5-1.6-2.4-2.3h.1c.8.6 1.6 1.4 2.3 2.3zm-.4.6c-.5.6-1.1 1.2-1.8 1.7.7-.6 1.3-1.1 1.8-1.7zm-1.7-3.1c.2.1.3.2.4.4-.1-.1-.3-.2-.4-.4zm.9.7c.2.1.3.3.4.4-.2-.1-.3-.2-.4-.4zm.9-20.7c-.8.7-1.6 1.4-2.2 2.2l.1.1s0 .1.1.1c0 .1.1.2.2.2l-.2-.2c0-.1-.1-.1-.1-.2.5-.8 1.2-1.5 2.1-2.2zm-2.1 25.3c2.7-2 4.3-4.2 4.7-6.5-.4 2.3-2 4.6-4.7 6.5zm16.1-26.2c0 .2-.1.4-.3.5l-.4.2c-.1.1-.2.1-.2.2v.3l-.3-.2v-.1c0-.2.1-.4.3-.5l.4-.2c.2-.1.3-.3.3-.5l.3.2v.1h-.1zm1.8-3.7h-.2c-.5 0-1.1.1-1.6.1h-.3v-.1h.3v.1c.5-.1 1.1-.1 1.6-.1v-.1l.2.1zm19.6 7c0-.1 0-.1 0 0 .1-.1.1-.2.1-.2 0 .1-.1.1-.1.2z"/><path id="_x5F_Ricircolo" fill="#000000" d="M169.5 315.7v-.1c-2.6 0-5.2-.1-7.7-.2-.2 0-.3.1-.5.1-.4 0-.9.1-1.5.1-.5 0-.9 0-1.3-.1l-.1-.1v-.2c-2-.1-4-.2-5.9-.4l.3.2h-.1l-.3-.2h.1v-.1c-1.8-.1-3.7-.3-5.5-.5v.1l.7.4 1.1.7h.2-.1c0 .1-.1.1-.1.2v-.1l-1.1-.7-.1 1.8s-.1 0-.1-.1l.1-1.8-.7-.4v-.1c-.4 0-.9-.1-1.3-.1v.3l-1.6 1.2c-.1 0-.2 0-.4.2-.3 0-.5.2-.8.3l-2.3 1.3.9-.3c-.3.2-.6.4-1 .7-.7.6-1.1 1.3-1.4 1.8-.1.1-.2.1-.3.2-1.8.9-3.5 1.9-5.2 2.8-1.5.8-3.1 1.6-4.7 2.4-1.4.7-2.7 1.3-4.1 1.9-1.2.5-2.3.9-3.4 1.4-.9.4-1.7.7-2.6 1-.7.2-1.3.4-1.9.6s-1.3.4-2 .6c-.8.3-1.7.5-2.5.7-1 .2-2 .4-2.9.6s-1.9.3-2.8.4c-.8.1-1.7.1-2.5.1s-1.5-.1-2.2-.2c-.5 0-.9-.1-1.3-.2-.3-.1-.7-.2-1-.3-.4-.1-.7-.2-1.1-.4-.5-.2-.9-.5-1.4-.8-.6-.4-1.2-.8-1.7-1.3-.4-.4-.9-.8-1.3-1.3-.4-.4-.8-.9-1.2-1.4-.2-.2-.4-.5-.6-.8-.3-.4-.5-.8-.8-1.2-.3-.5-.7-1-1-1.6-.4-.7-.7-1.4-1.1-2.2-.4-.9-.8-1.9-1.2-2.8-.4-1-.8-2-1.2-3.1-.4-1.2-.8-2.4-1.1-3.6-.4-1.2-.7-2.6-1-3.9-.3-1.8-.6-3.6-.8-5.4-.1-.7-.2-1.5-.2-2.2v-1.8c0 .5-.1.9-.3 1.4.2-.4.2-.8.2-1.2v-55c.3-.5.5-.9.5-1.3v-17.4c0 .4-.1.8-.2 1.2.1-.6.1-1.1.1-1.3s.1-.7-.1-1c-.1 0-.1-.1-.1-.1 0-6.9-.1-13.9-.1-20.8l.1-.1c.7-.7 1.1-1.6 1.1-2.5l-.1-2.9c0 .4-.1.9-.3 1.3 0 .1-.1.1-.1.2.2-.4.3-.9.3-1.3v-.5l-.1.6v-1c0 .1.1.2.1.4v-.6l.3-2.4v-1h-.1l-.2.8v.1l-.1-.1v-.4l.1-.7v-.2l.2-1.2v.5l.1-.6v-.4l.1-1v-.8l-.2.9.1-.9v-.2h-.1l-.2-.3v.3l-.1.4v-.8l.2-1.3v-.1l.1-.4.1-.9v-.7l-.4 2.5v-.1l.4-2.5v-.2h-.1.2l-.1-.2-.1-.2v.2l-.3-.5h-.2l.2-.1-.2-.1-.2-.1v-.1l.2.2c.1-.5.2-1.1.4-1.6.2-.6.5-1.2.7-1.8.2-.7.5-1.3.8-1.9.3-.6.6-1.2 1-1.8.3-.6.7-1.2 1.1-1.8s.8-1.2 1.2-1.7c.4-.5.9-1 1.3-1.5s.9-.9 1.3-1.3c.5-.4.9-.8 1.3-1.1s.8-.6 1.1-.8c.1-.1.2-.1.3-.2.7-.4 1.2-1.2 1.4-2.1.1-.2.2-.5.2-.8v-.1c0-.9 0-1.9-.3-2.9 0-.1 0-.3-.1-.5 0-.2-.1-.5-.2-.7-.2-.7-.6-1.5-1-2.2-.7-1.2-1.5-2.2-2.4-3-.3-.3-.5-.5-.8-.7-.4-.4-.9-.6-1.3-.8.5.2.9.5 1.4.9.2.1.4.3.6.5l.2.2c.9.8 1.7 1.8 2.4 3 .4.7.8 1.5 1 2.2.1.1.1.3.1.5 0 .1 0 .1.1.2 0 .1 0 .2.1.4v.1c.3 1.1.4 2 .3 2.9 3.1 1.4 5.3-.6 4.9-4.4-.2-1.9-1-3.9-2.1-5.6.3.5.6.9.9 1.4.1.2.2.3.2.5.2.4.3.8.5 1.2s.3.9.4 1.3c0 .2.1.3.1.5.4 2.1 0 4-1.2 4.9.4-.3.7-.7.9-1.2-.2.6-.6 1-1 1.3-.9.6-2.1.7-3.5.1v.1c-.1.2-.1.5-.2.8-.2.9-.7 1.7-1.4 2.1l5-2.9c.2-.1.3-.2.4-.3l.1-.1 5.9-3.4 1.4.8 1.6.4c0-.2.1-.4.2-.7-.1.2-.1.4-.1.7v-.2c0 .1 0 .2-.1.3v-.2c-.1.4-.2.9-.2 1.3v-.1c0 .1 0 .3-.1.4v.3c0 .3-.1.6-.1.9v.7c0 .8.1 1.5.2 2.2.4 2.4 1.5 4.2 3.1 5.1l1.5.8c-.9-.5-1.5-1.2-2-2.1.5.9 1.2 1.6 2 2l.1.1c.1.1.3.2.5.3-.2-.1-.3-.2-.5-.4-.6-.6-1-1.3-1.4-2.1-.5-1.3-.8-2.7-.8-4.3v-.1c-.1-.2-.1-.4 0-.6v-.2s0 .1.2.2v.7c0 1.6.3 3.1.8 4.3.3.9.8 1.6 1.4 2.1.1.1.3.3.5.4 0 0 0 .1.1.1.1-.1.2-.3.4-.4v-.1c.3-.3.7-.3.9-.2h.1l.2.1c.1-.1.1-.1.1-.2.2-.5.4-1 .6-1.4s.5-.9.7-1.3c.3-.4.5-.9.8-1.3l.1.1.9-1.2.1-.1c.3-.4.5-.7.8-1 .3-.4.6-.7.9-1.1l.4-.4.1-.1c.5-.5 1.1-.9 1.6-1.4.1-.1.2-.2.3-.2-.1.1-.3.2-.5.4l.1-.1c.3-.3.7-.6 1-.8l.1-.1h-.1c-.2.1-.4.3-.7.5.2-.2.5-.3.6-.5.2-.1.4-.3.6-.4.1-.1.2-.2.4-.3 0-.1.1-.1.1-.1.1-.1.3-.1.4-.2.1 0 .1-.1.2-.1 0 0 0-.1.1-.2 0 0-.1 0-.1.1.2-.4.5-.8.8-1 .1-.1.2-.1.3-.2v-1.4c-.4-.2-.8-.3-1.2-.5-.2-.1-.3-.1-.4-.2l-.1-.1c-.3-.1-.6-.3-.8-.5-.7-.6-1.1-1.3-1.1-2.1V155l.1-.1-3.5-2-1.4-.8c-.1 0-.1 0-.1-.1v-2.9c-.2-.4-.3-.8-.4-1.2-.2.2-.4.4-.6.5.2-.1.4-.3.6-.5-.2.2-.5.4-.7.6-.3.3-.6.5-.9.8.3-.3.6-.6.9-.8h-.1l-13.8-8-.2-.1v-3.5l-.1.1c-.1.1-.2.1-.3.1.1 0 .1-.1.2-.1l.1-.1.1-.1v.1l.1-.1c.2-.1.3-.2.4-.4.1-.3.2-.5.2-.6 0-.2 0-.3-.1-.4l-.1-.1c-.3-.2-.8.1-1.1.6 0 .1-.1.1-.1.2 0-.1.1-.2.1-.3.2-.4.6-.7.9-.7.1 0 .2 0 .2.1l-.3-.2h-.2c-.3 0-.7.3-1 .7s-.3.9-.2 1.2l.2.1.1.1c0 .1.1.2.2.2h.1c.1.1.2.1.4 0-.1.1-.2.1-.3.1-.1 0-.2 0-.2-.1-.1.1-.2.1-.2.1-.1 0-.1 0-.2-.1-.4-.2-.4-1 0-1.7s1.1-1 1.5-.8c.1.1.2.2.2.4 0-.3-.1-.6-.3-.7l-.1-.1h-.1l-.6-.3-.1-.1.6.3c-.5-1.9-1.5-3.3-2.9-4.1l-1.6-.9c-.8-.5-1.8-.8-2.9-.8-.3 0-.7 0-1 .1-.5-1.3-1.4-2.3-2.5-3l-.6-.3c.2.1.5.2.7.3l-1.6-.9-.1-.1v-.6l.1.1.4.2.8-.5.1-.1c.1-.1.2-.1.2.1v.1c.1-.1.2 0 .2.1h.1l6.3-3.6c.1 0 .2-.2.2-.3V119c0-.1.1-.1.1-.2.4-.9.6-1.7.6-2.5 0-.4-.1-.8-.2-1.1l-.1-.1.1-.1.1.1c0 .1 0 .1.1.2 0-.7-.1-1.3-.4-1.8v-2l-.1-.1h-.1l-.3.2h.1c-.1 0-.2 0-.2.1l-.3.1c-.1.1-.2 0-.2-.1v-.1l.2.1.8-.4-15.8-9.2h-.1l-.3.2 7.1 4.1 8.1 4.7h.1c0 .1.1.1 0 .2h-.1l-4.2 2.4c-.1 0-.2.2-.2.3v-.1l-.1-.1c0-.1.1-.2.2-.2l-8.7-5 8.8 5 4.2-2.4-16.2-9.2c-1.4.8-2.8 1.6-4.3 2.4-.1 0-.2.2-.2.3v.4c0 .1 0 .1-.1.2 0 0 0 .1-.1.1l-.2.1-.5.4c-.1 0-.2.2-.2.3v.5c-.6 1.2-.8 2.3-.6 3.2l-.3.2c-.2 0-.2.1-.2.3v4.8l10.9 6.3h-.2l-.2-.1-3.9-2.3-.3-.2c.1.2.3.5.5.7-.2-.3-.4-.5-.6-.8l-.2-.1v.6c0 1 .7 1.9 1.9 2.6l.1.1c.2.1.3.1.4.2s.3.1.4.2c.1 0 .1.1.2.1s.2.1.3.1h.1c.1 0 .1 0 .2.1h.1c.3.1.7.2 1 .2-.2 0-.3 0-.5-.1-.2 0-.4-.1-.5-.1v4.1c-6 3.4-10.9 11.7-11.1 18.7 0 1.4.1 2.6.4 3.7-.4-1.1-.6-2.5-.5-4 .1-7.1 5.1-15.5 11.1-18.8v-1.8c-.7.3-1.5.7-2.2 1.1-.1.1-.3.2-.5.3-.7.5-1.4 1-2.1 1.6l-.9.9c-.7.6-1.3 1.3-1.9 2.1-2 2.5-3.7 5.7-4.6 8.9-.1.2-.1.5-.2.8 0-.1.1-.3.1-.4 0-.1.1-.2.1-.3 0 .1 0 .1-.1.2 0-.1 0-.1.1-.2.1-.3.2-.7.3-1 .1-.3.2-.5.3-.8l.3-.9c0 .1-.1.1-.1.2-.3.2-.5.4-.7.6v-.1c.2-.2.5-.5.8-.7 0-.1.1-.1.1-.2.1-.2.1-.3.2-.5 0 .1-.1.2-.1.2.9-2.2 2.1-4.3 3.6-6.2v-.7l1.2-1.4c.2 0 .4.1.6.1.3-.2.6-.5.9-.8h-.1c-.9-.3-1.7-.6-2.6-.8-.8-.2-1.5-.3-2.3-.4-.7-.1-1.4-.1-2.2-.1-.8 0-1.5.1-2.2.2-.8.1-1.5.3-2.3.5-.7.2-1.4.5-2.1.8-.6.3-1.3.7-1.9 1.1-.7.4-1.3.8-1.8 1.3-.5.4-1 .9-1.5 1.5s-.9 1.2-1.3 1.8c-.4.6-.8 1.2-1.1 1.9-.4.7-.6 1.4-.9 2.1-.3.7-.5 1.5-.7 2.3s-.3 1.6-.4 2.5c-.1.9-.2 1.8-.2 2.6v.4c0 2.6 3.6 4.7 8.1 4.7 1.3 0 2.5-.2 3.6-.5-1.1.3-2.4.5-3.8.5-4.5 0-8.1-2.1-8.1-4.7v4.3c.1 0 .1-.1.2-.1v.6l.1-.1v.1l-.1.1v1.1c0 .1 0 .2.1.4-.1.2-.1.3-.1.5v-.1c0-.1 0-.1-.1-.2v-.2c0-.1 0-.1-.1-.2v-1c-.6.9-.7 2-.3 3-.1-.2-.2-.3-.2-.5 0-.1-.1-.2-.1-.4v-.5c0-.4.1-.7.2-1.1 0 0 0-.1.1-.2l.3-.6v-.6c-.3.2-.6.4-.8.7l-.1.1c-.1.1-.2.2-.2.3-.2.2-.3.4-.4.6-.1.1-.1.2-.2.4-.2.3-.2.7-.3 1.1 0-.2 0-.4.1-.6-.1.4-.2.7-.2 1v2.7l.6-.7.1-.1c-.2-.3-.3-.7-.4-1 .1.3.3.7.5 1v.1l.1-.1.2-.1c-.1-.1 0-.1 0 0l-.3.2-.6.7-.9 1.1-.2.2-.2.3-.1.1v-.1c-.1.3-.2.5-.3.7v-.2c0-.1 0-.1.1-.2v-.1c0 .1-.1.1-.1.2l-.1-.1c-.1.1-.2.2-.2.3 0-.1.1-.2.2-.4l.4-.4c.1-.1.1-.1.2-.1s.2 0 .3-.1l.1-.1-.4-.2h-.1c0-.1-.1-.1-.1-.1h-.1c-.2 0-.5.1-.8.4.2-.1.3-.2.5-.3 0 0-.1 0-.1.1 0 0-.1.1-.2.1l-.2.2c-.2.2-.4.5-.5.8 0 .2-.1.3-.1.4 0 .2 0 .4.1.5l-.1.3.3.2.2.2-.2-.2c0-.2.1-.5.2-.7-.1.2-.1.5-.2.7l.5.3.1-.1c.1-.1.1-.1.1-.2v1.5c0 .1.1.2.1.3h.1l.7.5v-.3h.2c0 .2.1.3.2.3h.9l-1 .1h1.1c.1 0 .3.1.4.1h.1l1.1.6h.2v.6l.8.5h.2v-.2l.1.1.2.1c-.2-.1-.3-.3-.3-.6v-.1c0 .2.1.4.3.5.1.1.3.1.4.1l1-.6.1-.1.8-.5 4.8-2.8h.2l5-2.9 4.8-2.8c.1-.6 0-1.2-.3-1.8-.3-.2-.6-.5-.9-.9l-.2-.2-.1-.1h.3l.9.9s.1 0 .1.1h.1v-.1l.1.1v.3c.2.6.3 1.1.3 1.6l1.3-.7h.1l.2.2c.1 0 .1.1.2.1 0 0 .1.1.2.1 1 .6 2.3.9 3.7.7 0-.1 0-.1-.1-.2v-.1s0-.1-.1-.1v-.1c-.2-.5-.3-.9-.4-1.4l.1.1c.1.5.2 1 .4 1.5v.1l1.6.9.1.1c.2.6.5 1 .8 1.4.1 0 .1-.1.2-.1.5-.4.8-.7 1.3-.9h-.1l-.1-.1c-.1 0-.2.1-.3.1 0-.1 0-.2-.1-.3 0 0 .1.1.2.1l.2.1.2.1.1.1.1-.1c-.1 0-.1 0 0-.1v.1h.1c-.5.3-1 .7-1.4 1-.1 0-.2.1-.2.1-.1 0-.2.1-.3.2-.8.6-1.5 1.2-2.2 1.9l-2.1 2.1c-.7.8-1.4 1.5-2 2.3l-1.8 2.4c-.6.9-1.2 1.7-1.7 2.6l-1.5 2.7c-.5 1-.9 1.9-1.3 2.8-.4.9-.8 1.9-1.1 2.8-.3 1-.6 2-.9 2.9-.2 1-.4 1.9-.6 2.9-.1.8-.2 1.6-.3 2.3v.2c-1.2 1.8-.5 3.8 1.9 5.2 3.1 1.8 8 1.9 11.3.3-3.3 1.7-8.4 1.6-11.5-.2-.2.1-.3.2-.3.4-1.5-.9-2.4-2-2.6-3.2.2 1.1 1.1 2.2 2.6 3 0-.2.2-.3.3-.4-1.6-.9-2.5-2.1-2.5-3.4 0-.6.2-1.2.6-1.8v-.2c-.7.8-1 1.6-1 2.4v.7l-.5 3.6c0-.1.1-.2.2-.2l-.1.1h.2l.4.8-.1.1c-.1.1-.1.1-.1.2v3H67c-.1.1-.1.1-.1.2v.8l.2.3-.1-.2v-.1l.1.3v3.3l-.1-.1v.1l-.1-.2v.8l.1.1.1.1v.5l1 .6-.8-.4v.1c.1.6.5 1.1 1 1.6.4.5.9.9 1.5 1.2v-1.5h-.1c-.1.1-.2 0-.2-.1v-.1c.1 0 .1.1.2.1l.1-.1h-.1v-1h.1c0-.1 0-.1.1-.2 0 .1-.1.1-.1.2v.7h.1v1.7c.1 0 .1.1.2.1.2.1.3.2.5.3 1.5.7 3.2 1.1 5 1.2-1.8-.1-3.6-.5-5.1-1.2 3 1.5 7.2 1.7 10.4.5h.1c.4-.1.8-.3 1.2-.5l.6-.3c0-.1.1-.1.1-.1.1 0 .2-.1.2-.1-.1.1-.2.1-.4.2 0 .1-.1.1-.1.1l-.6.3c-3.3 1.7-8.3 1.7-11.6 0-.2-.1-.3-.2-.5-.3-.1 0-.1-.1-.2-.1-.7-.3-1.2-.8-1.6-1.2V298c0 .2 0 .5.1.8v.5c.1.4.1.7.1 1.1 0 .6.1 1.3.1 1.9.1 1.1.2 2.3.4 3.4.3 2 .7 4 1.1 5.9.4 1.6.7 3.2 1.2 4.7.4 1.4.8 2.7 1.3 4.1s1 2.6 1.5 3.9c.4 1 .8 2 1.3 3 .4.9.9 1.7 1.3 2.5.5.8.9 1.6 1.4 2.4.6 1.1 1.2 2 1.9 3 .6.9 1.3 1.8 2.1 2.7.8 1 1.7 1.9 2.6 2.8.8.7 1.6 1.4 2.4 2s1.6 1.2 2.5 1.7c.7.4 1.4.7 2.1 1.1l2.1.9c.9.3 1.8.6 2.8.9 1.1.3 2.2.5 3.4.7 1.1.2 2.3.3 3.4.4h3.1l3.6-.3c1-.2 2.1-.3 3.1-.5.9-.1 1.8-.3 2.7-.5.4-.1.9-.2 1.4-.3.6-.1 1.3-.3 1.9-.5.8-.2 1.6-.4 2.4-.7 1.5-.4 3-.9 4.5-1.5 1.8-.7 3.6-1.4 5.4-2.2 1.7-.7 3.4-1.5 5-2.3 1.8-.8 3.6-1.8 5.4-2.7 3.1-1.6 3.5-2 5.6-3.1 1.6-.8 3-1.4 4.2-1.8-.3.5-.6.8-1.1 1.1l1-.6 1-.6.2-.1c.1-.1.3-.2.4-.3l.1-.1.1-.1.1-.1c.1 0 .1-.1.2-.2.6-.8.9-1.9.9-3.2v-.3c0-1.6-.5-3.5-1.4-5.3 1 1.8 1.5 3.8 1.5 5.5v.2c0 1.3-.3 2.4-.9 3.1h.1l-.1.1v-.1l-.2.2h.1l-.1.1.3.1h-.4l.3.1h.4l.7-.4.9-.6h-.1l.3-.2.4-.3-.1.1.2-.2-.1.1c-.2.3-.2.7 0 .8.2.1.5-.1.7-.4s.2-.7 0-.8h-.2c-.1 0-.1 0-.2.1l.1-.1s-.1 0-.2.1l.2-.2h.1l.1-.1h.3l.3-.2h.2s-.1 0-.1-.1l.1.1h.2l.7-.6 1.1-.8.6-.4c.3.2.6.4.7.6l.5.8h.1l.7.5-1.1-1.9.1.1v-.1l-.1-.1h.2v-.1h.1v.1l-.1.1h-.1l1.1 1.9c0 .1.1 0 .2-.1v.1c-.1 0-.2.1-.1.2 0 .1.1.1.1.1h.3c0-.1.1-.1.1-.1v-.1h-.1l.5-.3.2.2c0-.1.1-.2.1-.2 0 .1.1.1.2.2h.1l.6.3c-.1-.1-.2-.3-.2-.6.1-.6.4-1.2.9-1.5.1-.1.3-.2.4-.2l-.3-.1-.2-.1c-.1-.1-.1-.1-.2-.1h.3l.2.1.2-.7.2-.4.4-.2 2.4-1.4c.6-.4 1.1-1 1.5-1.7l.3-.9c.2-.6.3-1.3.3-2l3.2-1.9.8-.5 2.9-1.5v-.3h-8.1v.1zM85.8 104.4c.2 0 .3.1.3.2s-.1.2-.3.2-.3-.1-.3-.2.1-.2.3-.2zm-3 2.1c-.2 0-.3-.1-.3-.2s.1-.2.3-.2.3.1.3.2-.1.2-.3.2z"/><path id="_x5F_Scarico1" fill="#000000" d="M238.6 237c-.1-.6-.3-2.6-1.7-3.9-.1 0-.1-.1-.2-.1l-1-.6-5-2.9-.5-.3v2.2l-.8.5-4-2.3c-2.2 1.4-4.1 4-5.1 6.8l-.3.3-1.7 1c-.1.5-.1.9-.1 1.3 0-.4 0-.8.1-1.2l-1.1.6c0 .1-.1.1-.2.1v-.1h-.1l-.5-.3c0-1.6-.1-3.1-.1-4.6 0-.1 0-.1.1-.2V231c0 .1-.1.1-.1.2v-.1c0-.9 0-1.8-.1-2.7v-1.5l.1-.1s-.1 0-.1.1v-.1l-.3.3c.1-.1.2-.3.4-.4v-1.1c-2.1 1.5-3.9 4.2-4.4 6.8.5-2.6 2.2-5.4 4.4-6.9v-1.3c0-.2 0-.3.1-.4 0-.1.1-.1.1-.1l.3-.2h-.1l.5-.3c-.2-.2-.4-.3-.7-.4-.1 0-.3-.1-.4-.1l-.8-.2c-.1 0-.2 0-.3-.1.1 0 .3 0 .4.1l.8.2c.1 0 .3 0 .4.1-.2-.3-.5-.4-.8-.5-.1 0-.1 0-.2-.1-.4-.3-.9-.5-1.5-.5.7 0 1.2.2 1.7.5.3.1.6.3.8.5.2.1.5.2.7.4l3-1.7c-.5-.9-1.2-1.3-2.1-1.4.9.1 1.7.5 2.2 1.4l.2-.1c-.2-.5-.6-.9-1.1-1.2L174.2 194l-.5-.3c-.1 0-.1 0-.2-.1l.1.1h.1-.2c-.1 0-.2-.1-.3-.1h.2l-25.1-14.5-2.6-1.5-.2-.1v.2l-.8-.4-.8-.4h-.2.4c.1 0 .2.1.4.1.1 0 .1 0 .2.1h.2l.6.3c.2-1 .3-2 .3-2.9v-.1c0-.6 0-1.1-.1-1.7 0 .2-.1.3-.2.5s-.3.4-.4.5l.8-1.3.1-.1c-.1-.5-.1-.8-.3-1.3h.1-.2l-.1-.1v.1l-.7-.4h.1l.6.3c-.6-1.8-1.8-3.1-3.2-3.7h-.1l-1-.6c-1.1-.6-2.3-.9-3.5-.7.4.5.7 1.1 1.1 1.6-.4-.6-1-1.3-1.6-1.5.1 0 .2 0 .3-.1h.3c-.1-.2-.3-.4-.4-.6-.1-.1-.2-.2-.2-.4-.1-.3-.3-.6-.5-.8l-.6-.6c-.2-.2-.4-.4-.7-.5-.3-.2-.5-.3-.8-.4-.3-.1-.6-.1-.9-.2-.1-.1-.3-.1-.4-.1v-.7c0-.1 0-.1.1-.1l.5-.3v-.1l.1.1v-.4l1 .6.2-.2v.1h.1l6.3-3.6c.1-.1.2-.2.2-.4 0-.1.1-.3.2-.4l.8-.5c.1-.1.2-.3.2-.4v-4.7l-.1-.1h-.1l-.6.3v.1l.2.4c-.1-.1-.2-.3-.3-.4l-.1-.1-.1-.1v-.8l.3.2v-2.2l-.1-.1h-.1l-.3.2v-.1h-.1c-.1 0-.2 0-.3.1 0 0-.1 0-.1.1l-.1.1c-.1.2-.1.5 0 .6-.2-.1-.2-.4 0-.6l-.1-.1v-.1l.7-.4h.1l-15.9-9.2c0-.1-.1-.1-.1 0l-.3.2-.1.1-.7-.4-4.2 2.4c-.1 0-.2.2-.2.3v.3c.1-.2.2-.3.3-.3 0 0-.1.2-.3.3-.1.1-.3.3-.4.5l-.5.3c-.1.1-.2.3-.2.4v.5c-.7 1.4-.8 2.8-.4 3.7 0 .7.1 1.4.4 1.9v2.9l5 2.9v1.3c0 1 .8 1.9 1.9 2.6l.1.1c.2.1.3.1.4.2.2.1.5.2.8.3.1 0 .3.1.4.1v2.3c-.3.1-.7.3-1.1.5-.1 0-.1.1-.2.1-.1.1-.3.1-.4.2 0 .1-.1.1-.1.1-.1.1-.3.2-.4.3-.5.4-1.1.8-1.6 1.2s-1.1.9-1.7 1.4c-.3-.2-.6-.4-.8-.6-.1-.1-.1-.1-.2-.1-.5 0-1.1.4-1.5 1.1s-.5 1.4-.2 1.8h.1v.1c0 .1.2.2.4.3 0-.1.1-.1.1-.1.1-.1.1-.2.2-.2 0 .1-.1.1-.2.2 0 0-.1.1-.1.2v.1l-.1.1s0-.1.1-.1c-.3.4-.7.9-1 1.4-.1.1-.1.2-.2.3 0 .1-.1.1-.2.2 0 .1-.1.1-.1.2-.1.2-.3.4-.4.6-.9 1.5-1.6 3.1-2.1 4.7 0 0 0 .1-.1.1v-.1h-.1c.1-.3.2-.5.3-.8 0-.2.1-.4.2-.6-.1.1-.3.2-.4.4-.1.1-.2.3-.3.5 0 0 0 .1-.1.2 0 .1-.1.1-.1.2 0-.1.1-.2.2-.3.1-.2.3-.5.4-.7l.4-.4.3-.6-.2-.1h-.2c-.4 0-.9.2-1.2.7 0-.1.1-.1.1-.2l-.1.1c-.2.1-.3.3-.4.5 0 .1-.1.2-.1.3-.1.1-.1.2-.1.3v.5c0 .2.1.3.2.3s.1.1.2.1l.7.4v-.1s0 .1.1.2v.2c0-.1 0-.1.1-.2 0 .1-.1.3-.1.4v-.2c-.3 1.2-.6 2.3-.7 3.4.1-.4.2-.9.3-1.2 0-.1 0-.2.1-.3-.1.9-.2 1.7-.3 2.5v1.3c0 .2 0 .3.1.5v-.4c0 .5 0 .9.1 1.4 0 .2.1.4.1.5l.1.3c0 .4.2.8.4 1.7.6 1.3 1.4 2.2 2.4 2.8l1.1.6.5.3c1 .6 2.3.8 3.6.7h.1v-.1h-.9c-.3 0-.6-.1-.9-.1s-.6-.1-.9-.2c-.3-.1-.5-.2-.8-.4-.1-.1-.3-.2-.5-.3.5-.3.8-.3.9-.2 0 0 .2.1.3.1.3.1.6.1.9.2.3 0 .6.1.9.1h.6c0 .1.1.3.2.4.6 1.3 1.4 2.2 2.4 3.2l1.6.9c.5.4 1.8 1.2 4.7.5v-.3h-.2l-.8-.5v-.4l.8.5h.1c.4.1.7.2 1 .2l.4-.4.9-1 .1-1.4-.1 1.6-.9 1 .6-.3c.2 0 .3-.1.5-.2s.5-.3.7-.4l.1-.1c.4-.2.8-.5 1.2-.8.5-.4 1-.8 1.4-1.1-.1 0-.2-.1-.2-.1-.1 0-.2-.1-.3-.1h.8l-.3.3c9.2 5.3 18.5 10.7 27.7 16-.1 0-.1-.1-.2-.1.1.1.2.2.4.3l-.2-.1c.1.1.2.2.3.2l29.9 17.3 8.6 4.9 1.5 3c.2.1.4.3.6.4.1.1.3.1.4.2.1.1.2.2.4.3.1.1.2.1.4.2.1.1.3.2.4.3s.2.1.7.2c.1.1.3.2.4.3.1.1.2.2.4.2.1.1.3.2.4.3.1.1.3.1.4.2.1.1.3.2.4.3.1.1.2.1.3.1.1.1.1.1.3.2.1.1.2.1.3.2h.1c.2.2.3.3.5.4.1 0 .1.1.2.1v.2c.3.8.8 1.3 1.4 1.7h.1c-.2-.2-.4-.3-.5-.5l-.1-.1c-.1-.1-.3-.4-.3-.5h.2c.1.1.1.2.2.3.1.1.2.3.3.4.1.1.3.2.4.3h-.3s.1 0 .1.1.1.1.2.1c.5.3 1.1.6 1.8.7.1.1.2.1.3.2.2.3.5.5.7.7l.2.2c.2.1.4.2.6.2.2.3.5.5.7.5l.2.1c-.2-.5-.4-1.1-.5-1.8.1.6.3 1.2.6 1.7.3.4.6.8 1.1 1.1 2.8 1.6 5.5 3.2 8.3 4.8 0 0-.1 0-.1-.1.1.1.2.2.3.2.1.1.3.2.4.2.9.3 2.3 0 3.7-.8.1-.1.3-.2.4-.2.1 0 .1-.1.2-.1.1-.1.2-.1.3-.2.1 0 .1-.1.2-.1.1-.1.2-.1.2-.2.1 0 .1-.1.2-.1 1.1-.9 2.1-1.9 3-3.1.5-1.2 1.9-3.3 1.5-6.1zm-26-14.1c.1 0 .1-.1.2-.1 0 0-.1 0-.2.1 0 0 0 .1 0 0zm-67.6-49-.2.1c.1 0 .2 0 .2-.1zm-4.2-25.8-.3.3v-.2c-.1 0-.2-.1-.3-.1.2-.1.4-.1.6 0zm-3 10.7c.2 0 .3.1.5.1h-.1c-.2 0-.4 0-.6-.1h.2zm-2-12.8c.2 0 .3.1.3.2s-.1.2-.3.2-.3-.1-.3-.2.1-.2.3-.2zm-11-2.5c-.2 0-.3-.1-.3-.2s.1-.2.3-.2.3.1.3.2-.1.2-.3.2zm-9.5 32.8v-.2.2zm0 1.5c-.1.3-.1.6-.2.9.1-.3.1-.7.2-1v.1zm3.2.4c-.1.1-.2 0-.2-.2l.6.3c-.1 0-.3 0-.4-.1zm.9-2.1c.3-.1.5 0 .5.2v.1l-.5-.3zm1.2-8.7-.2.2.3-.3s-.1 0-.1.1zm1.3 13.6c0-.2 0-.3.1-.4 0-.1 0-.3.1-.4-.1.3-.2.6-.2.8zm5.8-39.6s.1 0 0 0h.2c.1 0 .2 0 .2.1v.1c0 .1-.1.2-.3.2s-.3-.1-.3-.2.1-.2.2-.2zm-.3 26.9c0-.1-.1-.1-.1-.1v-.1l.6-.3c.1 0 .1 0 .1.1v.1l-.6.3zm.2.8c-.1.1-.3.1-.4.2.1-.1.2-.2.4-.2zm-.9-2.2c.1 0 .1 0 0 0 .4-.2.6-.5.8-.8 0-.1.1-.2.1-.3v-.5l.1.1v.4c0-.1 0-.2.1-.2l-.1.2c0 .1-.1.2-.1.3l-.1.1v-.1c0 .1 0 .1-.1.2-.1.2-.3.5-.5.6 0 0-.1.1-.2.1v-.1zm-4.1 17.5c0 .2 0 .3-.1.4v.1c0-.1 0-.4.1-.6 0-.1 0-.2.1-.3-.1.1-.1.2-.1.4zm.8-3.6c-.1 0-.1 0-.1.1 0 0 0 .1-.1.1v.1c-.1.3-.2.7-.2 1 0-.1 0-.2.1-.3v-.1c0-.1 0-.2.1-.3v-.1c0-.1 0-.2.1-.3l.1-.2c-.1.1-.1.1 0 0-.1-.1 0-.1 0-.2v-.2c0-.1 0-.2.1-.2v.4c-.1 0 0 .1-.1.2zm.6-2.1c0-.1.1-.2.1-.3 0 .1 0 .1-.1.2.1-.1.1 0 0 .1h.2c0 .1-.1.3-.1.4l-.3.3c0 .1-.1.2-.1.4 0-.1.1-.2.1-.3h-.1s-.1 0-.1.1v.2-.1c0-.1 0-.1.1-.2v-.2c0-.1 0-.1.1-.2 0-.1.1-.2.1-.3l-.1-.1h.1s0-.1.1-.1c.1-.2.2-.4.2-.5 0 .1-.1.3-.2.6zm.1-4.4c0 .2-.1.3-.2.5.1-.2.2-.4.2-.5zm0-.3c-.1 0-.1 0 0 0zm.5-4.8c-.1.2-.2.3-.2.5 0 .1-.1.2-.1.4 0 .1 0 .1-.1.2v.1c0 .1 0 .3-.1.4v-.1c0-.1 0-.2.1-.4l-.4-.2-.1-.1h-.2c-.1-.1-.2-.2-.2-.3-.1-.2-.1-.5 0-.8 0 .2-.1.4 0 .6 0 .1.1.2.2.3l.2.1h.2l.4.2v.2-.2c.2-.7.5-1.3 1-1.9.1-.1.1-.2.2-.2 0 .1-.1.1-.1.2v.1l-.1.1c-.1.1-.2.2-.3.4-.2 0-.3.2-.4.4zm1.3 13.2-.1.2.1-.3v.1zm0-.6-.7-.3.7.3zm.1.3c0-.2 0-.3.1-.4.1-.3.2-.5.4-.7l-.1.3-.2.4c0 .1-.1.2-.2.4zm.2 7.5c.1-.2.2-.4.4-.6l-.4.6zm.5-8.8c.1-.1.2-.1.2-.2l-.2.2c.1-.1.1-.2.2-.2.1-.1.2-.1.2-.1l-.2.1-.2.2zm0 9.8 1-1.7h.1l-1.1 1.7zm2.2.2c-.1.2-.3.4-.4.6-.3.3-.6.4-.9.4.3 0 .6-.2 1-.5l.5-.9c-.1.1-.1.3-.2.4zm-1.1-7c.1 0 .2-.1.3-.1-.1 0-.2 0-.3.1zm1.2 4.9-.1-.1c.1 0 .1 0 .1.1zm.1.3c.1.3.2.7.2 1-.1-.4-.1-.7-.2-1zm-1-17.1-.3.3h-.1.1c-.2.2-.4.5-.6.7.2-.2.3-.5.5-.7l-.3-.1c-.2.1-.5.1-.7 0h-.2c-.2-.1-.3-.4-.3-.7v-.4c0 .1 0 .3.1.3l1.1.7.3.1.2-.2c0-.1.1-.1.2 0-.1-.2 0-.4 0-.6.2-.5.6-.9 1-.9h.3c-.5.5-.9 1-1.3 1.5zm5.1-7.5-.1-.5.1.5zm-.4-16.7c.2 0 .3.1.3.2s-.1.2-.3.2-.3-.1-.3-.2.1-.2.3-.2zm.1 19.8c-.6.4-1.2.8-1.7 1.2.5-.5 1.1-.9 1.7-1.2zm-.5-5.6s.1 0 .1-.1l-.1.1zm-.4-2.1c-.2.1-.4.1-.6.1.3 0 .5-.1.6-.1zm-.8.2c.3 0 .7-.1 1-.1-.3.1-.7.1-1 .1zm-.5 2.6h-.4c0-.1.1-.1.2-.1h.1l.1.1h.4l.1-.1v.1l-.1.1h-.1l-.3-.1zm.4 10.7-.1.6v-.2c0-.1 0-.3.1-.4zm.7 18.2-.3.3c0 .1-.1.1-.1.2l-.1.1-.3.4v.1-.3l.3-.3c.1-.2.3-.4.5-.5l-.5.5.2-.2.3-.3.1-.1s.1 0 .1-.1l-.2.2zm.1-19.3c-.2 0-.2.1-.3.1.2-.1.3-.2.5-.2l-.2.1zm.5 3.4-.2-.1.2.1zm.8-3.3-.8-.5.8.5c.1 0 .1 0 0 0zm0-5s-.1 0-.1.1l.1-.1c0-.1 0-.1 0 0 .1 0 .1 0 0 0zm.7 6.9-.1.3c-.1.1-.2.2-.4.3l.1-.1c0-.1.1-.1.1-.2s.1-.2.1-.2c.1-.2.2-.4.2-.5v.4zm.1-.5c.1-.1.1-.1 0 0 .1-.1.1-.1 0 0zm.1-.6c0-.1 0-.1 0 0zm.2-7.8s0-.1 0 0c-.1 0-.1 0 0 0zm-.4 28.8c.2-.1.3-.1.5-.2-.2.1-.3.2-.5.2zm1.7-30.3h-.2c-.2 0-.5.1-.8.3-.1.1-.1 0-.1 0s0-.1-.1-.1c.3-.2.6-.3.8-.3h.3l.1.1h.2c-.1.1-.1 0-.2 0zm.7.6c.1.2.1.4.2.6 0-.2-.1-.4-.2-.6zm1.5 5.5c0-.1-.1-.1-.1-.2s0-.1.1-.2v.4zm.5-1.1c0-.1.1-.1.1-.2l.1-.1v-.1l.1-.1-.3.5zm1.8 2.3.1-.1.3-.3c-.1.1-.2.3-.4.4zm1.6 4c0 .1 0 .1 0 0l.1.1-.1-.1c-.2 0-.4-.1-.6-.2.2.1.4.2.6.2zm-.6.1c.2 0 .5.1.7.1-.2 0-.4 0-.7-.1zm32.8 18.7c.1 0 .1.1.2.1l-.2-.1zm38.5 43v-.1.1zm.3-4.5s0 .1 0 0c-.1.1-.1.1 0 0-.1 0 0-.1 0-.2v.2zm1.8 3.8v-.4c.1.2 0 .3 0 .4zm.4-8.1c.1-.1.1-.1.1-.2 0 .1-.1.1-.1.2zm2.4 12.3c.1 0 .1 0 0 0zm6.9-1.3v-.3h1c-.2.1-.5.2-1 .3z"/><g id="_x5F_Carico2"><path fill="#000000" d="M260.5 151.7c-.1-.1-.3-.5-.6-.9v.5c-.1-.3-.2-.5-.3-.7v-.1h-.2l-.1-.1v-.2c0-.1 0-.2.1-.3 0 .1-.1.2 0 .3 0 .1 0 .2.1.2v-.5l.3-.3h.3v.4l-.3.4h-.3c.1.1.2.1.3.1 0-.1.1-.1.2-.2l.1-.1c0-.1.1-.2.1-.2v.1c0-.2.1-.3.1-.4v-.5l-.1-.1v-.1l-.3-.2c.1-.1.2-.1.3-.2 0-.1 0-.2-.1-.2-.1-.1-.1 0-.2 0l-1.4.8-.1-.1 1.4-.8-.9-.6-1.4.9h-.1s-.1 0-.1.1h-.3c-.2 0-.5 0-.7.1.2-.1.4-.1.6-.2h.5l.1-.1 1.5-.8-16.4-9.5h-.1l-.9.5-.6.4h-.6c-.5 0-1 .2-1.6.4h-.4c-.7.4-1.4 1-2.1 1.7l-.1.1-.2.2.1.1c-.1.1-.2.2-.3.2l-.2.1-1.4.8c-.2.1-.3.3-.3.5s-.1.3-.2.5v.1l-.1.1-.5.2h-.1l.1.1s-.1 0-.1.1c0 0-.1 0-.1.1l-.1.1c0 .1-.1.1-.1.2v.1l-.4-.3v6.2c0 .3-.1.6-.1.9 0 0-.1 0-.1-.1-.9-.3-1.9-.4-3-.3-.4-.8-.8-1.4-1.3-1.9-.3-.3-.7-.6-1.1-.8-.4-.3-.8-.6-1.2-.8-1.3-.1-6.4-.6-8.3.8-.2.2-.8.6-1.4 1.1h-.2c-.3.2-.5.4-.8.6.2-.2.5-.4.7-.6-1.5.1-2.5 0-3.3-.2-.3-.1-1.2-.2-2.3-.4-.7-.1-1.5-.1-2.2-.1-.8 0-1.5.1-2.2.2-.8.1-1.6.3-2.3.5s-1.4.5-2.1.8c-.6.3-1.3.7-1.9 1.1-.7.4-1.2.8-1.8 1.3-.5.4-1 1-1.5 1.5-.4.6-.9 1.2-1.3 1.8-.4.6-.8 1.2-1.1 1.9s-.7 1.4-.9 2.1c-.3.7-.5 1.5-.7 2.3v.2c.1.1.3.1.5.1.8.1 1.5.2 2.3.4.9.2 1.7.5 2.6.8.8.3 1.7.7 2.5 1.1.5.2.9.4 1.4.7l1.4.8h.1c.7.4 1.4.8 2 1.2-.2-.1-.4-.2-.6-.4l2.8 1.6v-.1c.6.3 1.1.6 1.7 1v.2l1.6.9c.1-.4.3-.8.6-1.1.2-.2.4-.3.6-.3h.2c.2 0 .3.1.4.3l.3.1c-.1-.2-.2-.3-.2-.5l.1.1h.1l.1.1h.1l.4.5v.1l.1.1v.1c-.4 0-.8.5-1 1.1-.1.1-.1.2-.1.3h.1c.1 0 .1-.1.1-.1.2.3.6.5.9.8.2.1.3.2.5.3l.1.1c.4.2.6.4 1 .6v.2c.4.3.8.7 1.2 1 .2.1.3.2.5.4v.2c.5.5 1 .9 1.5 1.4.7.7 1.3 1.4 2 2.2.4.5.8.9 1.2 1.4.8.1 1.7.1 2.7-.1l-.5-.3c-.1-.2-.3-.4-.4-.6-.1-.1-.1-.2-.2-.4 0-.1.1-.3.1-.4.1-.2.1-.4.2-.6.2-.3.3-.5.5-.8.2-.2.4-.4.6-.5s.5-.2.8-.3h.2l.7.4c-.1.1-.2.2-.3.2.1 0 .2 0 .3.1l1 .6c.2.1.3.3.4.5 0-.1-.1-.1-.2-.1-.4-.3-1.1.1-1.5.8s-.4 1.5 0 1.7c.2.1.5 0 .8 0-.1 0-.2 0-.3-.1-.1 0-.1 0-.2-.1l-.2-.1c-.1 0-.1-.1-.1-.1 0-.1-.1-.3-.1-.5 0 .1 0 .3.1.4l.2.1.3.2c-.3-.2-.3-.8 0-1.3.2-.4.6-.7.9-.7.1 0 .2 0 .2.1h.1v.2c.1.1.1.2.1.3h.1c.7-.4 1.4-.8 2.1-1.4l-.1-.1c-.5-.4-.9-.8-1.3-1.1-.4-.4-.8-.7-1.2-.9-.2-.2-.4-.3-.6-.4h.1s-.1 0-.1-.1c0 0 .1 0 .1.1.2.2.3.2.5.3l1.2.9c.5.3.9.7 1.3 1.1 0 .1.1.1.1.1l1.2 1.2c.5.5.9 1 1.3 1.5.4.6.8 1.1 1.2 1.7.4.6.8 1.2 1.1 1.8.4.7.7 1.3 1 1.9.3.6.6 1.3.8 1.9.2.7.4 1.3.6 1.9.1.6.3 1.2.4 1.8.1.5.2 1.1.3 1.6s.1 1 .1 1.4V205l4.1 2.4c.5.2.9.7 1.2 1.2l10.9-6.3v-9c-.1-.9-.2-1.8-.3-2.8s-.3-2-.5-2.9c-.3-1-.5-2-.8-2.9s-.6-1.9-1-2.8c-.4-.9-.8-1.9-1.2-2.8-.4-.9-.9-1.8-1.4-2.7s-1-1.7-1.6-2.6c-.6-.9-1.2-1.7-1.8-2.5s-1.2-1.6-1.9-2.4c-.6-.8-1.3-1.5-2-2.2s-1.4-1.4-2.2-2c-.3-.3-.7-.6-1.1-.9l-1.2-.9c-.7-.5-1.5-1-2.3-1.5 0-.1-.1-.1-.1-.1-.9-.5-2-.4-3.1 0 .9-.4 1.9-.5 2.6-.3.1 0 .2.1.3.1h.1-.1c.8.5 1.6 1 2.3 1.5l1.2.9c.2-1 .3-2 .3-3.1h-.1c-.1 0-.2.1-.4 0 0 0 .1 0 .2-.1h-.1c.1 0 .2 0 .3-.1h-.2l-.1-.1h.3s.1 0 .1-.1v.1c.1 0 .2 0 .4-.1s.4-.3.5-.5c.1-.3.2-.5.2-.7v-.1c0-.2-.1-.3-.2-.4.1 0 .2.1.2.2 0-.2 0-.4-.1-.5 0 0 0-.1-.1-.1v-.4l-.1-.1-.1-.1h-.1v-.1h.1l.1-.1c.1 0 .1.1.1.1 0-.1 0-.2.1-.2l.7-.4.2-.1v.2l-.2.1v.1l-.1.1c.2-.1.3-.1.4 0 .3.2.5.5.6.8h.1c0-.3-.1-.5-.3-.8.2.2.4.5.4.8h-.1l-.1.1s0-.1-.1-.2c-.4-.1-.8-.2-1.2-.4l-.1.1c.2-.1.5.1.7.4.1.2.2.4.1.5l-.2.2h.3c.1 0 .2 0 .3-.1.1 0 .2-.1.3-.1.2-.1.3-.2.4-.4.1 0 .2 0 .4.1h.4s.1 0 .1-.1h.2l.4-.4c0 .1-.1.2-.1.2h.1l.1-.1.1-.1.1.1-.1.1-.6.3-.1.1h-.1l-.3.2 9 5.2v-.1l.6.3v.1h.2l4.1-2.5c.1 0 .2-.2.2-.3l.5-.5h-.1.1c.1 0 .1-.1.2-.1.5-.2.7-.3 1-.6.6-.4 1.5-1.1 2.4-2.4v-.1l.1-.1c.2-.3.4-.6.5-.9h-.1v-.1h.1c.1-.3.2-.6.3-1 0-1.2 0-2.5-.1-3.5zm-.3-2.1v.2-.2zM210 163.9v-.3.3zm2.4 7.4c.1-.1.2-.2.2-.3 0 0 .1 0 .1-.1-.1.2-.2.3-.3.4zm9.4-3.4s0 .1 0 0c.1.1.1.1 0 0 .1.1.1.2.2.3 0 0 0-.1-.1-.1h-.1v-.2c-.1.1-.1.1 0 0-.1 0-.1 0 0 0h-.1v-.1l.1.1c-.1 0-.1 0 0 0l-.5-.3h.1c.1.1.1.1.2.1l.2.2zm-.4-.9-.2-.1.4.2c-.1 0-.1 0-.2-.1zm0-14.8c-1.2.3-2.5 1-3.7 2.1l-.2-.1c1.3-1 2.7-1.7 3.9-2zm-3.7 2.2h.1l.1.1h-.1l-.1-.1c-.2 0-.5.2-.8.6.2-.3.5-.6.8-.6zm-3-3.8c-.3.3-.6.6-1 .9h-.1c.4-.3.7-.6 1.1-.9zm-2.9 11.6-.6-.3c.3-.1.5.1.6.3zm-.9-.1c.1-.1.2-.1.3-.1l.6.3.1.1c0 .1-.1.2-.1.2l-.3-.2c-.1-.3-.3-.4-.6-.3zm1.3 5.1-.4-.2h.1l.3.2zm.1-.4-1-.6v-1.6l1 .6v1.6zm0-3.9-.2.4-.4.6c0-.1 0-.1.1-.2 0-.1.1-.2.2-.3l.2-.3.1-.2.2-.2.1.1-.3.1zm-.1-9.8-.1.1.1-.1c.2-.3.5-.5.7-.8-.3.3-.4.5-.7.8zm1.2 18.8c-.1-.1 0-.1 0 0zm.3-.5v-.4.4zm.5-.1h-.1v-.2h.1v.2zm.8-4.3c0 .1-.1.3-.1.4 0 .2-.1.4-.1.6v.1c-.1.3-.1.5-.2.8 0-.2.1-.4.1-.6l-.1-.1v-.1l-.1.1-.5-.7v.2c0-.1 0-.2-.1-.3l1-.6c0-.1 0-.2.1-.2l-.7-.3-.5.1h-.3c-.2 0-.4-.1-.5-.4 0-.1-.1-.2-.1-.3h.1v-.1h.2l1 .6h-.1l.1.1h.2l.5.3h.1v.4zm-.4-3.2h.6c.3 0 .5.2.5.6h-.1l-1-.6zm1.3.7-.3.6.3-.6s0-.1 0 0c.1-.2.1-.3.2-.5-.1.2-.1.3-.2.5zm.4-8.4.1.1.2.1v.1l-.2-.1-.1-.1v-.1zm.9 5.7c-.1.3-.3.5-.4.8h-.1c-.1.3-.2.5-.4.8.1-.3.2-.5.3-.8-.1 0-.1.1-.2.1.2-.3.3-.6.5-.9v-.1c-.2-.1-.3-.2-.4-.3.1.1.2.2.4.3h.1c.1 0 .1-.1.1-.2.1.1.1.2.1.3-.1 0 0 0 0 0zm1 15.4c-.1 0-.2-.1-.3-.2l-.3-.2c.1 0 .2 0 .3.1l.1.1.2.2c.1 0 0 0 0 0zm.7.4-.1-.1c.1 0 .1.1.1.1h.1-.1zm-.2-.6c0 .2.1.3.2.4-.1-.1-.2-.2-.2-.4zm.6-9.7-.4.4c-.1.2-.2.4-.2.6 0-.1 0-.2-.1-.3.1-.2.3-.3.4-.5.1-.1.1-.2.3-.2 0-.2.2-.3.3-.4-.1.1-.2.2-.3.4zm-.2-1.2.4.2h-.1l-.3-.2zm.6.7c0-.1.1-.2.1-.3.1 0 .2.1.2.1h.5c-.3 0-.7.1-.9.4 0-.1 0-.2.1-.2zm.6 3s0 .1.1.1h-.1c-.1 0-.1-.1 0-.1zm-.1-.2.1.1c-.1 0-.1 0-.1-.1zm-.4.4c0-.1 0-.1 0 0h.1-.1zm.6 8.1h-.3s0-.1-.1-.1c.1.1.3.1.4 0 .1.1 0 .1 0 .1zm.1-.2c-.1 0-.2 0-.2-.1-.1 0-.1-.1-.1-.1h.1c-.1 0-.1 0-.1-.1l.2.1h-.1l.2.2c.1 0 .1.1.2.1l-.2-.1zm.2-7.6c-.1 0-.1 0 0 0h-.4c-.1-.1-.2-.2-.2-.3l.1.1c.1.1.3.1.5 0h.2l.1.1c-.1 0-.2.1-.3.1zm-1.1-12.2-.1-.1c-.1.1-.1.2-.2.3.1-.1.1-.2.2-.3-.2.2-.3.4-.5.6.2-.2.3-.4.5-.6l-2.3-1.3-.1-.1.1-.1.1.1 2.3 1.4c.5-.6 1-1.2 1.5-1.7-.5.5-1 1.1-1.5 1.8zm1.4-1.9s0-.1.1-.1h.1c-.1 0-.1.1-.2.1zm1 20.3c0 .1 0 .1 0 0v-.1c0-.2-.1-.3-.2-.4h-.1l-.1-.1h-.3s.1 0 .1-.1h.3c.1 0 .1 0 .2.1h.2v-.3c0-.1-.1-.1-.1-.1l-.4-.3-.2-.1h.1c.1 0 .2 0 .3.1.2 0 .3.2.3.4.1.1.2.4.2.6 0-.2-.1-.3-.2-.3v.1c-.1.1-.1.3-.1.5zm2.8-26.1c-.1 0-.3 0-.4.1h-.1c.2-.2.4-.2.5-.1zm0 2.8c-.1.1-.2.2-.3.2.1-.1.2-.1.3-.2zm-.6.3s.1 0 0 0c0 .1 0 .1 0 0 0 .1-.1.2-.1.2-.1.1-.3.2-.4.3.1-.1.2-.2.4-.3l.1-.2c-.1 0 0 0 0 0zm-.4-2.6s.1 0 0 0c.1-.1.1-.1.2-.1-.1.1-.3.3-.4.5-.1.4-.2.8-.1 1 0 .1.1.1.2.2h-.1l-.2-.1c0 .1.1.2.2.3h-.1c-.1-.1-.2-.2-.2-.3v-.1c0-.2 0-.6.2-.9.1-.2.2-.4.3-.5zm-.2-1.2-.6-.3c.3 0 .5.1.6.3zm-1 9.7s0 .1 0 0zm1.2 1.9h-.2v-.1l-.1-.1-.1-.1-.3-.2c-.1-.2-.2-.5-.3-.7s-.1-.4-.1-.6l.7.4c0 .1.1.2.2.4 0 .1.1.2.1.3.1.1.1.2.1.4-.1.1 0 .2 0 .3l.1-.1-.1.1zm.5.1-.3-.1.3.1zm.1-2.9c-.1.1-.3.3-.4.5 0-.1.1-.1.1-.2.1-.2.1-.3.2-.5l-.7-.4h.1c.2-.1.3-.2.5-.2.2-.1.5-.1.8-.1l.7.4h-.1c.1.1.1.2.2.3v.1l-.2-.1c-.1-.1-.2-.1-.2-.1h-.3c-.1 0-.1 0-.2.1h-.2c-.1.1-.2.1-.3.2zm.8 2.8.3.2c-.1 0-.2 0-.3-.2 0 .1-.1.1-.1 0h.1zm-.6.2.3.2s0 .1.1.1c.2.1.5 0 .7-.1-.3.2-.5.2-.7.1-.1 0-.1 0-.2-.1-.1 0-.1-.1-.2-.2zm.4 14h.3c-.1-.1-.2-.1-.3 0zm.7-.2c-.1 0-.2-.1-.2-.2h-.1c-.2-.1-.3-.2-.5-.4.1.1.2.2.4.2l.3.2c-.1 0-.1-.1-.2-.1.1.1.2.1.3.3l-.1-.1c.1 0 .1.1.1.1.1 0 .1 0 0 0zm.3-16.1-.1.1-.3.3c-.1.1-.2.2-.3.4.1-.2.1-.3.2-.4.2-.3.4-.4.5-.4zm.2 0h.1-.1zm-.1-.5h.2l.2.1c-.2-.1-.3-.1-.4-.1zm.7.9v.1-.3h.1v-.3c0 .2 0 .3-.1.5.1-.1 0-.1 0-.2v.2zm2.7-4.1v-.2.2zm1.1.1c-.1.3-.3.6-.5.8.2-.3.3-.5.5-.8zm.4 1.7c-.1 0-.1.1-.2.1h-.2c0-.1-.1-.2-.1-.3v-.1c-.1-.2-.2-.3-.3-.5.1.2.2.3.4.5.1.1.1.1.2.1l.2.2c.1 0 .1 0 0 0zm.8-3.2c.2-.1.3-.2.5-.3-.2.1-.4.2-.5.3zm.3 3.3s.1 0 0 0l.2.1c-.1 0-.1 0-.2-.1zm.5.2c-.1 0-.1-.1 0 0-.1-.1-.1-.1 0 0zm-.2-.5c0 .1.1.3.2.3-.1 0-.2-.2-.2-.3zm.3-5s0-.1-.1-.1c0 0 .1 0 .1.1zm.4 3.1h.1-.1zm.4.3c-.1 0 0 0 0 0l-.2-.1.2.1-.2-.2c.1 0 .2 0 .2.2 0-.1.1 0 0 0 .1 0 0 0 0 0zm.3.3v-.1s0-.1-.1-.1c0 0 0-.1-.1-.1 0 0 .1 0 .1.1h.1v.2zm4.8 3.2v-.2c0-.1 0-.1-.1-.2.1 0 .2.2.1.4zm1.6-7.8-.2-.2c.1.1.2.1.2.2zm-3.4 1h.2-.2zm.1 3.3s-.1-.1 0 0zm-.1-3.2c0 .1 0 0 0 0zm0 .1c0 .1-.1.2-.2.2l.2-.2c-.1.1-.1.1 0 0zm-.2.1s.1-.1 0 0c.1 0 0 .1 0 0zm-.4-1.4c-.1 0-.2-.1-.2-.1.1 0 .2 0 .2.1zm-.2-.4c0 .1 0 0 0 0zm-1.4 2.4c0-.1 0-.1 0 0zm.7 6.7c-.2-.1-.3-.2-.5-.3l-.1-.1-.2-.1s-.1-.1-.2-.1c.2 0 .3.1.4.2l.1.1.2.1c.1-.2.2-.4.2-.6-.1.2-.1.4-.2.6.1.1.2.1.3.2zm.5-7.4-.3.1.3-.1zm-.1-.1v-.2.2c.1 0 .1 0 0 0zm-.1 7.7c.1 0 0 0 0 0zm.2.1c.1 0 .1 0 .2.1l-.2-.1zm.2-7.4c0 .1-.1.1 0 0zm-.1-.1s0-.1 0 0c0-.1 0 0 0 0zm-.1-1.4c-.1 0-.2.1-.2.1l.2-.1c0 .1 0 .1 0 0 0 .1 0 .1 0 0l-.2.2v-.1l-.1.1-.2.1h-.1v-.1l.1-.1.5-.5c-.2.2-.3.4-.5.6v.1l-.1.1.2-.1c.1-.1.1-.2.2-.2h.2v-.1h.2l.1.1h-.3v-.1zm.5 3.4-.2-.2c.1.1.2.1.2.2zm.6 5.5c.1 0 0 0 0 0l-.1-.1c.1.1 0 .1 0 0l.1.1c0 .1 0 0 0 0zm.1-3.1c-.3 0-.5.1-.8.3l.3-.3.2-.2.1-.1c.1 0 .1.1.2.1v.2c0-.1 0-.1 0 0-.1 0 0 0 0 0zm.1-6.9c.1 0 .1-.1.2-.1h.2c-.2 0-.3.1-.4.1zm-.1 0v-.2c.1-.1.2-.1.3-.1h.2l-.5.3zm1.1 8.1-.1-.1.1.1c0-.1 0-.1 0 0zm-.6-8.3h.6-.6zm1 8.4h-.2l.1.1-.1-.1-.1-.1.3.1zm-.2-8.2c-.1 0-.1 0 0 0h.1-.1zm.1 4.7c0-.1 0-.1 0 0zm.2-.6v-.2c0 .1.1.2 0 .2.1.1.1 0 0 0zm0-.4s0-.1.1-.1c0 .1 0 .1-.1.1zm.3.9c0-.1-.1-.1-.1-.1v-.1h.1l.1.1.1.1h-.2zm.7 0c0 .1 0 .1-.1.1h-.1l.1-.1v-.2h-.1v-.2l-.1-.1v.1-.1l-.1-.2v-.1.1l.2.2c.1.1.1.2.1.3h.1v.2c0-.1 0-.2-.1-.4 0-.2-.1-.4-.2-.5.2.1.3.4.3.6v.3zm-.7-5.6c-.1 0-.2 0-.3.1h-.1s.1.1.1.2l-.1.1-.2-.2c-.1-.1-.1-.2-.2-.3-.1-.2-.2-.3-.2-.4 0-.1.1-.2.2-.2h.3c.2.1.4.4.4.6.2-.1.6-.1.9 0l.2.1c-.3-.1-.7-.1-1 0zm1 5.5.3-.3c0 .2-.1.3-.3.3zm.4 3.8-.1-.1h.2l-.1.1zm0-4.1c0-.1 0-.1 0 0l.1-.1h.1l-.2.1zm.3-.5c0-.1-.1-.2-.1-.2s0 .1.1.2c0-.1 0-.1 0 0zm.6-1.7c0 .1.1.2.1.2v.1c.1.1.1.2.2.3v.1-.1c0-.1-.1-.2-.2-.3 0-.1-.1-.2-.1-.3 0 0-.1 0 0 0-.1 0 0 0 0 0zm.6 1.5s0-.1 0 0c-.1-.1-.1-.1-.1-.2 0 0 0-.1-.1-.2s-.1-.2-.2-.3c-.1-.2-.2-.3-.3-.5.2.1.3.3.3.5.1 0 .1 0 .1.1.1.1.1.1.1.2l.1.1s.1.1.1.3zm7.6.2.4-.3h.2c0 .1-.1.1-.2.1l-.5.3s-.1.3-.2.4c0-.2.1-.4.3-.5zm-6.2-1.9s0-.1 0 0c.1 0 .1.1.1.1h.1v.2c-.1 0-.1-.1-.2-.1s0-.1 0-.2zm.3.8c0-.1-.1-.3-.2-.5 0-.1-.1-.1-.1-.2.2.2.3.5.3.7zm-1.2 2.1c0 .2.1.3.1.5v.4-.3c0-.2-.1-.4-.1-.6v.2c0-.1 0-.2-.1-.3.1 0 .1.1.1.1zm.1 2.1v.2c0 .1-.1.1-.1.2 0-.1.1-.3.1-.4v-1s0 .1.1.2c0 .2 0 .5-.1.8zm0-6.1.1.1c.1.1.1.2.2.3-.1 0-.2-.2-.3-.4zm1.3 7.1s-.1.1 0 0c-.1.1-.2.1-.3 0h-.1c-.2 0-.3-.3-.3-.5l.1-.1v.1h.1v-.1h.2v-.2l.2.2c.1.1.1.2.1.3v.1c.1.1 0 .2 0 .2zm6.2 3.9h-.2v.1l-.3-.2h-.3v-.4s.1 0 .1.1c.2.1.3.2.5.4.1-.1.1 0 .2 0 0 0 .1 0 0 0 0 .1 0 .1 0 0zm-.2-7.1-.5-.3c0-.2.1-.4.3-.5l.4.2h.1c-.2.2-.3.4-.3.6zm.5 7.3c-.1 0-.1 0-.2-.1l.2-.1v.2zm.1-.3.2-.1-.2.1zm.3-7.9-.1.1h.1l-.5.2-.5-.3.4-.2.5.2h.1c-.1 0 0 0 0 0 .1-.1.1-.2.1-.3h.1c0 .1-.1.2-.2.3zm4.4-4.6c-.1.1-.1.1-.2.1.1 0 .1-.1.2-.1zm-3 5.4h-.2c0-.1.1-.1.1-.2.1.1.1.1.1.2zm-.1-2.9-.3.2.3-.2zm-.7 4.5-.4-.2.4.2zm0 6s-.1 0 0 0l-.4-.2v-.2l.4.2v.2h.2c-.1.1-.2.1-.2 0zm.8-1.6s-.1 0 0 0l-.1.1c-.1.1-.1.1-.1.2s-.1.1-.1.2-.1.1-.1.2v.1c0-.1-.1-.2 0-.3 0-.1 0-.1.1-.2 0-.1 0-.1.1-.2-.1-.1 0-.1.2-.1-.1 0-.1 0 0 0 0-.1-.1-.1 0 0l.1-.1c-.1 0-.1 0-.1.1zm.3-6.1s-.1 0 0 0v-.4l.1-.1c-.1.1-.1.1-.1.2v.1l.2.1.1.1.1-.1-.1.1c0 .1-.1.1-.1.1h-.1v.1h-.1v-.2zm.2-.6c0-.1 0-.1 0 0zm.1-2.7c0-.1.1-.1.1-.1l-.1.1zm.3 10.3-.3.4h-.3v-.5l.1-.1.1-.1.1-.1h.3v.4zm.1-7.9h-.1.1l-.1.2v-.1h-.2c.1 0 .1-.1.2-.1 0 0 0-.1-.1-.1h-.2.2l.2.1zm.3-3.2-.3.3-.2.2s-.1 0-.1.1l-.2.2-.1.1h.1l-.1.1c-.1 0-.1.1-.2.1h-.2c.1-.1.2-.2.4-.3h-.1l.2-.2.2-.2.3-.3c.1-.1.2-.1.3-.1zm.6-.4c-.1.1-.2.1-.3.2h-.2l.2-.2c.2-.2.5-.4.8-.6h.1c0 .2-.3.4-.6.6zm1.3-.8c-.1 0-.1.1-.2.1s-.1.1-.2.1h-.1c.1-.1.2-.1.3-.1v-.1c.1 0 .1-.1.2-.1.1.1 0 .1 0 .1zM214 340.7c0 .4-.1.9-.2 1.5v.2h-.1c0-.1-.1-.1-.1-.1h-.1l.1.1c-.1-.1-.1-.1-.2-.1l-1.2-.6c-.5-.2-1-.4-1.6-.6s-1.1-.3-1.8-.5c-.6-.1-1.3-.3-1.9-.4-.7-.1-1.4-.2-2-.2-.7-.1-1.4-.1-2.1-.1s-1.4 0-2.1.1c-.7 0-1.4.1-2.1.2-.7.1-1.3.2-1.9.3-.5.3-1.1.4-1.6.6-.6.2-1.1.4-1.6.6s-.9.4-1.4.6l-.6.3c.1 0 .1-.1.2-.2 0 0-.1 0-.1.1l-38.7 22.4c.1-.2.2-.5.3-.8-.1.3-.2.6-.4.8h.1s0 .1-.1.1c-.3.5-.6.8-1.1 1.1l-8.5 4.9c.3-.2.6-.5.8-.8-.2.3-.6.6-.9.8-2.4 1.4-6.2-.8-8.5-4.9s-2.3-8.5 0-9.8c.1-.1.3-.1.4-.2l-.3.2c.5-.2 1-.4 1.5-.4h-.1c-.4 0-.7.1-1.1.2l8.2-4.7c.4-.3.9-.4 1.5-.4 2.3 0 5.1 2 7 5.3 1.5 2.7 2 5.5 1.6 7.5.5-2 0-4.8-1.6-7.6-1.9-3.3-4.7-5.3-7-5.3l38.8-22.4c.1-.1.2-.1.3-.2.7-.4 1.3-.7 1.9-1 .9-.4 1.8-.8 2.7-1.1.9-.3 1.9-.6 2.8-.9.9-.3 1.9-.5 2.9-.7s2-.3 3-.5l3-.3c1 0 2-.1 3.1 0 1 0 2 .1 3 .1 1 .1 2 .2 3 .4 1 .1 2 .3 3 .6.6.1 1.1.3 1.6.4v6.6c.1 2.9.2 5.8.2 8.8zm33.7-17.9v14.4l.1.2.7.4h-.1l.9.6h.2l3.6-2.1v.4c-.1.9-.2 1.7-.4 2.5s-.4 1.6-.7 2.3-.5 1.4-.9 2.1c-.3.7-.7 1.3-1.1 1.9s-.8 1.2-1.3 1.7c-.5.6-1 1.1-1.5 1.6s-1.1.9-1.8 1.3c-.6.4-1.3.8-1.9 1.1-.7.3-1.4.6-2.1.8-.8.2-1.5.4-2.3.5-.7.1-1.4.2-2.2.2-.7 0-1.5 0-2.2-.1-.8-.1-1.5-.2-2.3-.4-.9-.2-1.7-.5-2.6-.8-.5-.2-.9-.4-1.4-.6.2-.7.5-1.5.6-2.2.2-1 .5-1.9.6-2.9.2-1 .3-2 .4-2.9.1-.9.1-1.8.1-2.8v-4.3c.1 0 .1-.1.2-.1v-2.3l-.1-.1v-85.1l.2-1.1c2.1.2 4.8-1.6 6.6-4.7 0-.1.1-.1.1-.2 2.2-3.7 2.2-7.8 0-9h-.1v-6.5c.1 0 .2 0 .3.1.4.4.6.6 1 .8l.8.5c.2.2.5.3.8.3.2.2.4.4.7.6l.2.1c.3.5.7.9 1.1 1.1l8.5 4.9c.4.3.9.4 1.4.4s1-.1 1.5-.3v84.2l-5.3 3c-.1.2-.2.3-.3.5z"/></g><g id="_x5F_Carico1"><path fill="#000000" d="m208.7 214-.2-.4v-1l.5 1.1v.4h-.1l6.6 3.8v-.5c0-.3.1-.7.1-1.1l1.2-.4h.1l-1.2.4c-.1.3-.1.7-.1 1.1l1.6.6v.1l-1.6-.6v.5l1.6.9v-.1l1.2.7c1.4.2 2.9.3 4.4.3l3.9-2.2-2.1-1.2h-.1l-.5-.3-11.1-6.5c-.1.3-.2.6-.2.9v-.7l-.2-.1c0-.1 0-.1.1-.2l-4.3-2.5c-1.6 1.9-2 4-1.1 6.1l1.5.9zm10 2.2.4.2h-.1l-.5-.2h.2zm-.4 0h-.3l-.3-.1c.3 0 .5.1.6.1zm-6.5-3.1c-.1.3-.5.5-.9.6.4-.2.7-.4.9-.6zm-22.9 20.2c0-.1 0-.1 0 0h.2v1.2l-.2-.2c.2.7.5 1.4 1 1.9v3.9c0 .1 0 .1.1.2v.8c0 .1 0 .1.1.2l.3.2v.1s0 .1.1.1l.1.1.1.1v.5l3.9 2.3c.1 0 .2.1.3.1h.3c-.1 0-.2-.1-.3-.1.2.1.5 0 .7-.1v-.4l.1-.1c.3-.2.7-.2 1 0v.6c-.2-.1-.5-.2-.8 0l1.1.6.4.2v-.5l.6.4.1-.5c.1.1.3.1.4 0v.1c-.1.1-.3.1-.4 0v.4h.4v.1l.1-.1c1.2-.1 2.3-.4 3.1-.8.3-.1.4-.3.6-.4l.7-.7v-.6l.4.3h.4v.5l4.1-2.4v-.5l.1-.1v-6.2c-1.4-1.2-2.7-2.7-3.8-4.4l-.4-.2-.4-.2v-.1l-.4-.2-1-.6-3.5-2.1v.1l-.4-.2-1.4-.9-1-.6v.1h-.1c-.1.1-.3.1-.5.1s-.3 0-.5-.1l-3.9-2.3c-.1-.1-.2-.2-.2-.3v.1l-.1-.1v-.1s0-.1.1-.1v-.2l-.5-.3v9.8l.6-.3.6-.3c.3-.2.6-.2 1.1 0 1.1.4 2.1 1.8 2.3 3.2 0 0-.1 0-.1.1-.2-1.4-1.2-2.8-2.3-3.2-.4-.2-.7-.2-1 0l-.6.3-.6.3-.2.2-.4.2-.1.1c-.2 0-.3.2-.4.4-.1.2-.2.3-.2.5l.2.1zm15.7-.1v.2s0 .1-.1.2c-.1.2-.3.3-.4.2.1 0 .2-.1.3-.3 0 0 0-.1.1-.1 0-.1 0-.1.1-.2-.1 0-.1 0-.2-.1l.2.1c-.1-.1 0-.1 0 0zm-.3-.1-.1.1s0-.1.1-.1zm-.2.2s-.1.1-.1.2c0-.1 0-.2.1-.2zm0 1.4c0-.1.1-.2.2-.2.1-.1.1-.1.2 0 0 0 .1 0 .1.1v.2s0 .1-.1.2c-.1.2-.3.3-.4.2-.1 0-.1-.1-.1-.2 0-.2 0-.3.1-.3zm-4 3.3c-.1 0-.2 0-.3-.1.1.1.2.1.3.1l.1-.1-.1.1zm-.3-.4c.1 0 .1 0 0 0l.3.1h-.2s0-.1-.1-.1zm.4.3s0-.1 0 0h.1c0-.1 0-.1-.1 0 .1-.1.1-.2.1-.2v-.1l.2.1.1-.2.1-.2.2-.1.1-.1.2.2-.2.4-.3.2-.2-.2c-.1 0-.1.1-.1.1h-.1l.1.1c-.1 0-.1-.1-.1-.2l-.1.2zm.1-1.3c.1-.1.2-.1.2 0 .1 0 .2.1.2.1l-.2-.1h-.2zm.7 1.2c.1-.1.1 0 0 0zm-.5 6.6h-.2l1-.6-.8.6zm.7-10.5-.2.3-.3.2-.2-.2c-.1 0-.1.1-.1.1l.1.1-.2-.1h-.1s0 .1.1.1l-.1-.1-.1.1h-.1.1-.1.2v-.2c0-.1 0-.1.1-.2.2-.2.3-.3.5-.3l-.2.2c-.1.1-.2.2-.2.3l.2.1.1-.2.1-.2.2-.1.1-.1.1.2zm-.9-.8c.1-.1.2-.1.2 0h-.2zm.6-.2v.2-.2zm.1.6c-.1 0-.1 0-.2.1l.1.1h-.2v-.2l.1.1.2-.1zm-1-.8s0-.1 0 0c.1-.1.1-.1 0 0 0-.1.1-.1.1-.2.1 0 .2.1.2.1h.2l.1.1h-.4l.1.1c-.4.2-.7.7-.8 1.1-.1-.1-.1-.1-.1-.2v-.3c.3-.2.5-.4.6-.7zm-1 4.2c0-.1 0-.1.1-.2.1-.3.3-.5.6-.7l.1-.1h-.1.6c.1 0 .1 0 .1.1h.1l.2.1h.2c0 .1.1.2.1.3v.2c0-.3-.1-.5-.3-.5l.1.1.1.1c-.1-.1-.3-.2-.5 0-.4.2-.7.6-.8 1.1v.2-.5c0-.1 0-.2-.1-.3l-.1.1c0 .1.1.2.1.2v.4c0 .1 0 .1-.1.2l-.3-.2c0-.1-.1-.2-.1-.3v-.3zm-7.6-8.7c0 .1 0 .2-.1.2-.1.1-.3 0-.4-.2-.1-.1-.1-.3-.1-.4 0-.1 0-.2.1-.2l.1.1h.1s.1 0 .1.1.1.1.1.2c.1.1.1.1.1.2 0-.1 0 0 0 0zm2.7 1.3c-.1 0-.2 0-.2.1v.2l.1.1h-.1c-.1-.1-.1-.2-.1-.3s0-.1.1-.2c.1 0 .2 0 .2.1.1 0 .1.1.1.1l-.1-.1zm.2.2c.1 0 .1.1.1.2 0 0 0-.1-.1-.2zm-.3 9c0-.1 0-.1.1-.1h.1c0 .2.1.2.1.3.1.1.1.1.1.2-.1 0-.2 0-.3-.2 0 0-.1-.1-.1-.2zm-1.6-3.3v.3-.3c-.1 0 0 0 0 0zm.3.7c.1-.2.1-.5 0-.7h.1c.1.2.1.4 0 .7 0-.1 0 0-.1 0v.2-.2l-.4.1v-.1c.1.1.3.1.4 0zm-.4-.9v-.2.2zm.2 1.5c0 .1-.1.1-.1.2l-.2.1.3-.3zm-2.1 3.9-.3-.2v-.1l.3.3zm.9-6c0-.1-.1-.2-.1-.3.2.3.3.6.3.9 0 .2-.1.5-.3.5.2-.1.3-.6.1-1.1zm0 1.2s.1 0 0 0c0 0 0 .1-.1.1l.1-.1zm-.4 1.1.1.1v.1h-.1v.1-.1s-.1-.1 0-.2c-.1 0-.2-.1-.3-.1s-.1-.1-.2-.1c-.2-.1-.3-.2-.4-.4l.4.4v-.1c.1.1.1.1.2.1v.1c.1 0 .2.1.3.1zm-.7-1.4s.1.1 0 0c.1.1 0 0 0 0zm.1-.3c0 .1 0 .2.1.2h-.1v-.2s0-.1 0 0v-.2h.1l.1.1s-.1 0-.1-.1l-.1.2c0-.1 0-.1 0 0zm-.3-1.7s.1 0 0 0c.1 0 0 0 0 0zm-.2.9.3.3v-.5c.1 0 .1 0 .2.1l.1.1c-.1.2-.1.3-.1.4h-.1v-.1l-.1.1c-.1-.1-.2-.2-.3-.4zm-.1-.4v.4c0 .1.1.3.1.4v-.2l.2.2.2.1v.6c-.1-.1-.2-.2-.3-.4 0-.1-.1-.1-.1-.2s-.1-.2-.1-.4c-.1-.2 0-.4 0-.5zm27 6.5-2.3-1.4-.3-.1v101.7c-.1.5-.1 1-.2 1.5s-.2 1-.4 1.5c-.1.6-.3 1.2-.5 1.8-.2.7-.5 1.2-.7 1.9-.2.7-.5 1.3-.8 1.9-.3.7-.7 1.3-1 1.9s-.7 1.2-1.1 1.8c-.4.6-.8 1.2-1.2 1.7s-.9 1-1.3 1.5-.9.9-1.3 1.3c-.4.3-.9.7-1.3 1-.3.2-.7.5-1 .7-.2 0-.3.1-.4.2L182 371.6h-.4c-.5 0-1.1.1-1.5.4l-8.5 4.9c-2.3 1.4-2.3 5.8 0 9.8 2.3 4.1 6.2 6.3 8.5 4.9l8.5-4.9c.5-.2.8-.6 1.1-1.1 1-1.6.9-4.3-.3-7.2 1.3 2.9 1.5 5.7.4 7.4l21.2-12.3h.1c.3-.2.5-.4.7-.6.2-.3.4-.6.5-.9.2-.5.3-1 .4-1.6 0 .6-.2 1.2-.4 1.7-.1.4-.3.7-.5.9s-.4.4-.7.6c.5-.3.9-.5 1.3-.8.7-.5 1.5-1.1 2.3-1.7s1.5-1.2 2.2-1.9l2.1-2.1c.7-.8 1.4-1.5 2-2.3l1.8-2.4c.5-.9 1.1-1.7 1.6-2.6l1.5-2.7c.5-.9.9-1.9 1.3-2.8.4-.9.8-1.9 1.1-2.8.4-1 .7-2 .9-2.9.2-1 .4-1.9.6-2.9s.3-2 .4-2.9c0-.8.1-1.6.1-2.5-.2 2.4-3.8 4.4-8.1 4.4-4.4 0-8-2-8.1-4.6.2 2.5 3.7 4.5 8.1 4.5 4.3 0 7.9-1.9 8.1-4.4v-91.4l-13.6-8.3zM174 377c.1 0 .1 0 0 0h.3c-.1.1-.2.1-.3 0zm56.1-176.2c-.1-1-.3-2-.5-2.9-.2-1-.5-2-.8-2.9s-.6-1.9-1-2.8c-.4-.9-.8-1.9-1.2-2.8-.4-.9-.9-1.8-1.4-2.7s-1-1.7-1.6-2.6c-.6-.9-1.2-1.7-1.8-2.5s-1.2-1.6-1.9-2.4c-.6-.8-1.3-1.5-2-2.2s-1.4-1.4-2.2-2c-.8-.7-1.5-1.3-2.3-1.8s-1.5-1-2.4-1.5l-.6-.3-9.4-5.4c-.5-.3-1-.5-1.4-.8-.8-.4-1.6-.8-2.5-1.1s-1.7-.6-2.6-.8c-.8-.2-1.5-.3-2.3-.4-.7-.1-1.5-.1-2.2-.1-.8 0-1.5.1-2.2.2-.8.1-1.5.3-2.3.5-.7.2-1.4.5-2.1.8-.6.3-1.3.7-1.9 1.1-.7.4-1.2.8-1.8 1.3-.5.4-1 1-1.5 1.5-.4.5-.9 1.1-1.3 1.7l-.1.1 14.9 8.6v.1l4.5 2.6 5.5 3.2c-.2-.5-.4-1.2-.5-1.9.1.7.2 1.3.5 1.8l28.4 16.4zm-34.9-33.1c.1-.2.3-.3.4-.4l-.4.4zm-21.6 19.2 16.2 9.4v6.8l-16.2-9.4v-6.8z"/></g><g id="_x5F_Scarico2"><path id="Scarico2_x5F_2" fill="#000000" d="M258.9 220.3c-.2-.1-.4-.2-.7-.3l-5.5-3.2-.5-.3-.1-.1v2.3l-.7.5-4-2.3c-2.2 1.4-4.1 4-5.1 6.8l-.3.3-1.7 1c-.1.7-.1 1.3-.1 1.8v-1.9l-1.4.7v.2l-.7.5-.3.2v-.1h-.1c.1.3.3.6.4.8 0 .1.1.2.2.2l.3.3c.2.1.3.3.5.4.2.1.4.2.6.2h.2-.1c.2.3.5.5.7.6l.2.1c-.2-.4-.4-.9-.5-1.4.1.6.3 1.1.5 1.5.3.5.6.8 1.1 1.1l8.5 4.9c-1.1-.6-1.7-1.8-1.8-3.3.2 1.4.7 2.6 1.8 3.2 2.4 1.4 6.2-.8 8.5-4.9 1.2-2 1.8-4.1 1.8-5.9.1-1.7-.5-3.2-1.7-3.9zm-3.4.4c-.1 0-.2.1-.3.1.2-.1.3-.2.5-.2.2-.1.5-.2.8-.2-.3.1-.7.2-1 .3z"/><path id="Scarico2_x5F_1" fill="#000000" d="m242.3 208.6.2-.1c-.3-.5-.7-.9-1.2-1.2-.1-.1-.3-.1-.4-.2l.3.2c-.3-.2-.7-.3-1.1-.4.2 0 .5.1.7.2l-44.7-25.9.1.1-.4-.2-.1-.1-.3-.2c-.2-.1-.5-.1-.7-.2.2 0 .4 0 .6.1.1 0 .2.1.4.1l-25.5-14.7-2.3-1.3-.2-.1c.2-1.1.3-2.1.3-3.1v-.1c0-.6 0-1.2-.1-1.8l.1-.1c0-.2-.1-.4-.1-.5-.1-.3-.1-.5-.2-.8l-.1-.1c-.2-.7-.5-1.3-.9-1.8.1.1.2.3.3.5-.5-1-1.2-1.8-2.1-2.2l-.1-.1c-.3-.1-.5-.2-.8-.3l-.6-.4c-1.1-.6-2.4-.9-3.7-.7h-.1c-.3 0-.7.1-1 .2-.3 0-.5.1-.8.2h-.1c-.7.3-1.4.6-2.1 1-.1 0-.1.1-.2.1l.1-.1c.7-.4 1.4-.8 2.1-1l-1.3-.8c-.3.2-.5.4-.7.8.1-.3.3-.6.6-.9l.1-.1c.2-.1.3-.2.5-.3h.3-.2c-.2.1-.3.2-.5.3l1.3.9h.1c.3-.1.5-.2.7-.4v-.7c-.1-.7-.5-1.1-1-1.2.3 0 .6.1.8.3l.1.1v-.1.1c0 .1.1.1.1.2.1.2.1.4.2.7v.7c.3-.1.7-.2 1-.2-.1-.3-.2-.6-.4-.8-.2-.3-.4-.6-.6-.8l-.6-.6c-.2-.2-.5-.4-.7-.5-.3-.2-.5-.3-.8-.4-.3-.1-.6-.1-.9-.2-.1-.1-.3-.1-.4-.1v1.5c.3.2.5.3.7.5l.6-.3.1.1-.6.3h-.1c-.2-.2-.5-.4-.9-.5V149h-.1s-.1 0-.1.1l.1-.1c.1 0 .1-.1.2-.1h.1l.6-.3v-.6l.1.1 1 .6c-.1-.1-.1-.1 0-.1l-.1-.1v-2.8c-.5-1-.4-2.4 0-4v-2c0-.2.1-.2.1-.3 0 .1 0 .2.2.3v2c-.1.3-.1.6-.2.9v.1c0 .2 0 .3-.1.5v.4c0 .9 0 1.6.3 2.2v2.9h.1l6.3-3.6c.1 0 .2-.2.2-.4 0-.1.1-.3.2-.4l.8-.5c.1-.1.2-.3.2-.4v-4.7l-.1-.1h-.1l-.6.4-.1-.1.7-.4h.1l-1-.6v-2.2l-.1-.1h-.1l-.8.4c-.1.1-.2 0-.2 0h-.1v-.4h.1l-.1-.1c.1 0 .1 0 .1.1v.4l.2.1.8-.4-15.9-9.2-.3.2-.7-.4-4.2 2.4c-.1.1-.2.3-.2.4v.3c0 .1 0 .1-.1.2h.1l-.1.1c0 .1 0 .1-.1.2l-.2.1-.6.3c-.1.1-.1.2-.2.3v.6c-.7 1.4-.8 2.8-.4 3.7v.1c0 .7.1 1.3.4 1.8v2.8l5.2 3 .1.1 3.5 2 2.6 1.5h-.1l-.4-.2c-2.8-.1-5.2-1.3-5.7-2.8 0-.1 0-.1-.1-.2v-.4 1.3c0 1 .8 1.9 1.9 2.6 1 .6 2.3 1 3.8 1.1-.7 0-1.5-.1-2.2-.4v1.5s.1 0 .1-.1v.7h-.1v-.7c-.1 0-.1.1-.2.1-.2.2-.5.5-.7.8-.1.1-.3.1-.4.2l-.1.1c-.1 0-.3.1-.4.2 0 .1-.1.1-.1.1-.1.1-.3.2-.4.3l-.3.3c-.1.1-.2.2-.3.2-.3.2-.6.5-.9.7-.5.4-1 .8-1.6 1.4l-.6-.4c-.1-.1-.1-.1-.2-.1h-.3v1.7l-.2.2v1.8c0 .2-.1.3-.2.4l-.8.5c-.1 0-.2.2-.2.4 0 .1-.1.3-.2.4l-1.5.9h-.1c-.1.3-.3.5-.4.8-.2.5-.4 1-.6 1.4-1.1 1.9-1.5 3.9-1.1 4.8h1.6c.7.1 1.5.3 2.1.7l.9.5c.1-.2.1-.3.1-.5l-1.4-.8c-.1 0-.2 0-.3-.1l-.2-.2v-.1l.6.4 1.5.7 1.7 1 1.1.6c-.1-.3 0-.6.2-.8.1-.3.3-.5.5-.7 0-.1 0-.1.1-.2 0-.1 0-.2.1-.3l-.1.1h-.1v-.1l-.1-.1c.3-1 .8-1.9 1.2-2.9l.1.1s.1 0 .1.1c-.5.9-.9 1.8-1.2 2.7v.3c0 .1-.1.2-.1.3l-.1.1v.1c-.2.5-.4 1-.5 1.5-.2.5-.3 1-.4 1.5.3.4.5.9.7 1.5l.1.1c.2.5.3.9.3 1.4l-.1.2c0 .6.1 1.2.1 1.8v.1c0 1-.1 1.9-.3 3l.9.5v.1l.2.1v.3l2 1.2.1-.2-.8-.5-.3-1.4v-.4.1l.3-.4c.1-.2.1-.3.3-.5l-.1.2-.1.2-.3.4v.1l.3 1.4.8.5c-.1-.5-.1-1-.3-1.4l1-1.7.9-.2-.8.2-1 1.7c.1.2.2.4.2.7.1.2.1.5.1.7l1.3-.3 1-1.7v.1l-1 1.7-1.3.3-.1.2 4.6 2.7c.1-.1.1-.1.2-.1v-.4h-.1l-.8-.5-.1-.1.1-.8v-.9l.1-.1c0 .1 0 .1-.1.2l.7.5v1.6c.4.1.7.2 1.1.2l.4-.4.9-1V179l-.8-.5-1.1-.2-.2.3c-.1 0-.1.1-.2.1l.1-.1v-.1l.2-.2h.1l1.2.2.8.5-.1 1.7-.9 1 .6-.3 1.2-.6c1-.6 1.8-1.2 2.7-1.9l27.5 15.9c.1.1.2.2.4.3l37.8 21.9.1.1v-.1l.7.4v.2h-.1v.3l5.7-3.3c.3-.9.7-1.8 1.2-2.6.9-1.6 2.1-2.8 3.2-3.7-1.2.9-2.3 2.2-3.1 3.7-.4.7-.8 1.4-.9 2.2 0 0 0 .1-.1.1v.2l.2-.1c0-.1.1-.2.1-.3l.6-.3c1.6-2.1 3.5-3.4 5.2-3.5l.4.1c-1.7-.2-3.9 1.2-5.6 3.7l.4-.2c.1-.1.1-.2.2-.3l2.2-1.4c.7-.5 1.3-.9 2-1.1l.4-.2h.3l.5-.3s-.1-.1-.2-.1-.1-.1-.2-.1h-.1c-.1 0-.2-.1-.3-.1s-.3-.1-.4-.1c-.2 0-.4-.1-.6-.1-1.2 0-2.6.7-3.9 2.1-.1.1-.1.2-.1.2l-.3.3c0-.1.1-.1.1-.2.1-.1.2-.3.4-.4 0-.1.1-.1.1-.2 1.3-1.3 2.8-2 4-2.1l.5.1c.1 0 .3.1.4.1-.2-.3-.5-.4-.8-.5-.7-.3-1.5-.2-2.4.2l.2-.2c.4-.2.8-.2 1.2-.2.3 0 .6.1.9.2-.3-.3-.7-.5-1.2-.6h-.8.1v-.1s.1 0 .2-.1l-.1.1.5.1c.4.1.9.3 1.2.6.3.1.6.3.8.5.2.1.5.2.7.4l3-1.8c-1.1-1.9-3.6-1.8-6 .1l.1-.1c2.3-1.9 4.8-2 5.9 0zm-86.9-58c.2-.1.4-.2.6-.2-.2 0-.4.1-.6.2zm8.1-6.9c0 .2-.2.4-.4.5.1-.2.2-.4.4-.5zm-5.7-10.4c.2 0 .3.1.3.2v.1c0 .1-.1.1-.3.1s-.3-.1-.3-.2.1-.2.3-.2zm-11-2.5c-.2 0-.3-.1-.3-.2v-.1c0-.1.1-.1.2-.1h.1c.2 0 .3.1.3.2s-.1.2-.3.2zm3.3-1.9c0 .1-.1.2-.3.2s-.3-.1-.3-.2v-.1c0-.1.1-.2.3-.2s.3.1.3.2v.1zm-.6 18c-.1 0-.1-.1-.2-.1.2.1.4.1.6.2-.2 0-.3-.1-.4-.1zm-10.1 17.8c0-.2.1-.5.2-.7 0 .2-.1.5-.2.7zm2.4-1.2-.3-.2h.1c.2 0 .4.1.5.3l-.3-.1zm2.9 1.7c.2-.9.6-1.7 1-2.5-.4.7-.7 1.6-1 2.5zm1.1-3c.1-.2.2-.3.2-.5 0 .2-.1.4-.2.5zm.3-4.9-.3-.1h-.3c-.1 0-.1 0-.1-.1l-.2-.2v-.1l.6.3.3.2zm1.1-1.8s0-.1 0 0c.1-.1 0 0 0 0zm.2 6.6c.1 0 .1 0 0 0zm3.9 6.5-.3-.5v-.1l.3.6zm-.3-.6c0 .1-.1.2-.1.2l-.1-.2h-.1l.1-.1h.1l.1.1zm-1.2-15.1c0 .1-.1.1-.1.1s0-.1.1-.1zm-.3.7v.1-.1zm-.1.1c-.1.2-.2.4-.4.5-.1.1-.1.1-.2.1.3-.2.5-.4.6-.6zm0 17.7h-.1l-.3-.6.4.6zm-.7-3.3c.1-.1.1-.2.2-.2h.1l-.3.2c-.1 0-.1 0 0 0zm-.4-9.5v.1-.1zm-.4 11.1-.1.2.1-.3v.1zm0-14.7c0-.1 0-.1 0 0zm1 21-.1.1-.1.1.2-.2.1-.3.3.2-.4.1zm.9-16.5c-.1.2-.1.2-.2.2 0-.1.1-.1.2-.2-.1 0 0 0 0 0l-.4-.2h-.1.1l.4.2c0-.1 0 0 0 0zm-.1-3.1h-.1c.2-.1.3-.1.4-.1-.1 0-.2 0-.3.1zm-.2-.8c0-.1 0-.1 0 0 0-.1-.1-.1-.1-.2l.6-.3h-.1.1c.3-.2.5-.4.7-.7-.2.3-.4.5-.7.8v.1c.5-.3.8-.8 1-1.3v.2c-.2.5-.6.9-1 1.2l-.5.2zm.7 3.3c0-.2.1-.4.3-.6 0-.1.1-.1.1-.2.1-.1.2-.2.3-.2h.2c-.2.3-.5.5-.8.8 0 .1-.1.2-.1.2 0 .1 0 0 0 0zm.3 11.7c.1-.2.3-.3.4-.5-.1.2-.2.4-.4.5zm.5 5.6-.3-.2.4-.1h.1v.1l-.2.2zm2.1-28.8c.1-.1.1-.1.2-.1-.1 0-.1.1-.2.1zm.1 12.6v-.1l.1-.1c0 .1-.1.1-.1.2zm.4 2.3.1-.4-.1.4zm2.1 18.8c-.3.4-.6.7-1 .7.3 0 .7-.3 1-.7zm-.5-1.9c-.3.1-.6.4-.9.9.2-.5.6-.8.9-.9zm-1.4-29.6c.1-.1.1 0 0 0zm.7-14.4c0 .1 0 .1 0 0 .1.1.1.1.2.1h.1c-.2.1-.3 0-.3-.1zm1.6 25.3v.2l-.1.1.1-.3zm-.1.9v-.1l.1-.4.1-.2v-.1.1c0 .2-.1.4-.2.7 0 0 0 .1 0 0zm-.6-6.9c0-.1.1-.1 0 0zm.6-2.8c0 .1 0 .1 0 0 0 .1 0 .1 0 0zm.1 25.1s-.1 0 0 0c-.2-.1-.3-.2-.4-.3l-.3-.3.1.1c.1.1.1.1.2.1l.4.2s.1 0 .1.1l.1.1h-.2zm3.8-19.4c0-.1-.1-.1 0 0-.1-.1-.1-.2-.1-.2 0-.1 0-.2.1-.4v.6zm.8-1.8s0-.1.1-.1.1-.1.2-.1l-.3.2zm1.3 0s-.1 0 0 0c-.1 0 0 0 0 0zm1.1.4-.4-.2h.4v.2zm.9 6.7s.1 0 0 0h-.3c-.1 0-.2-.1-.2-.1.1 0 .2 0 .4.1-.1-.2 0-.1.1 0l-.1-.1c.1-.1.1 0 .1.1.1-.1.2-.1.2 0-.1 0-.1-.1-.2 0zm.7-2.9.7.5h.1-.1l-.7-.5zm.3 1.4.7.4-.7-.4z"/></g></svg>